# Blender 4.4.0
# www.blender.org
mtllib cube_sky2.mtl
o cube_sky
v 190.153702 109.643921 125.830208
v 190.153702 -15.173801 125.830223
v -418.477966 -15.173801 125.830223
v -418.477966 109.643921 125.830208
v 190.153702 109.643906 -63.057991
v 190.153702 -15.173817 -63.057976
v -418.477966 -15.173817 -63.057976
v -418.477966 109.643906 -63.057991
vn -0.0000 -0.0000 1.0000
vn -0.0000 -0.0000 -1.0000
vn 1.0000 -0.0000 -0.0000
vn -0.0000 -1.0000 -0.0000
vn -1.0000 -0.0000 -0.0000
vn -0.0000 1.0000 -0.0000
s 1
f 2//1 4//1 3//1
f 8//2 6//2 7//2
f 1//3 6//3 5//3
f 2//4 7//4 6//4
f 7//5 4//5 8//5
f 1//6 8//6 4//6
f 1//1 4//1 2//1
f 5//2 6//2 8//2
f 2//3 6//3 1//3
f 3//4 7//4 2//4
f 3//5 4//5 7//5
f 5//6 8//6 1//6
