# Blender 4.3.2
# www.blender.org
mtllib lockHandle.mtl
o Torus.001
v 1.500000 5.605656 2.241655
v 1.452376 5.605656 2.403847
v 1.324625 5.605656 2.514544
v 1.157306 5.605656 2.538601
v 1.003542 5.605656 2.468379
v 0.912152 5.605656 2.326174
v 0.912152 5.605656 2.157135
v 1.003542 5.605656 2.014930
v 1.157306 5.605656 1.944708
v 1.324625 5.605656 1.968765
v 1.452376 5.605656 2.079462
v 1.385819 6.179681 2.241655
v 1.341821 6.161457 2.403847
v 1.223794 6.112568 2.514544
v 1.069211 6.048538 2.538601
v 0.927152 5.989695 2.468379
v 0.842719 5.954721 2.326174
v 0.842719 5.954721 2.157135
v 0.927152 5.989695 2.014930
v 1.069211 6.048538 1.944708
v 1.223794 6.112568 1.968765
v 1.341821 6.161457 2.079462
v 1.060660 6.666317 2.241655
v 1.026985 6.632641 2.403847
v 0.936651 6.542307 2.514544
v 0.818339 6.423995 2.538601
v 0.709611 6.315268 2.468379
v 0.644989 6.250645 2.326174
v 0.644989 6.250645 2.157135
v 0.709611 6.315268 2.014930
v 0.818339 6.423995 1.944708
v 0.936651 6.542307 1.968765
v 1.026985 6.632641 2.079462
v 0.574026 6.991476 2.241655
v 0.555801 6.947477 2.403847
v 0.506912 6.829450 2.514544
v 0.442882 6.674867 2.538601
v 0.384039 6.532808 2.468379
v 0.349066 6.448375 2.326174
v 0.349066 6.448375 2.157135
v 0.384039 6.532808 2.014930
v 0.442882 6.674867 1.944708
v 0.506912 6.829450 1.968765
v 0.555801 6.947477 2.079462
v 0.000000 7.105656 2.241655
v 0.000000 7.058033 2.403847
v 0.000000 6.930281 2.514544
v 0.000000 6.762961 2.538601
v 0.000000 6.609198 2.468379
v 0.000000 6.517808 2.326174
v 0.000000 6.517808 2.157135
v 0.000000 6.609198 2.014930
v 0.000000 6.762961 1.944708
v 0.000000 6.930281 1.968765
v 0.000000 7.058033 2.079462
v -0.574025 6.991476 2.241655
v -0.555800 6.947477 2.403847
v -0.506912 6.829450 2.514544
v -0.442882 6.674867 2.538601
v -0.384039 6.532808 2.468379
v -0.349066 6.448375 2.326174
v -0.349066 6.448375 2.157135
v -0.384039 6.532808 2.014930
v -0.442882 6.674867 1.944708
v -0.506912 6.829450 1.968765
v -0.555800 6.947477 2.079462
v -1.060661 6.666316 2.241655
v -1.026985 6.632641 2.403847
v -0.936651 6.542307 2.514544
v -0.818339 6.423995 2.538601
v -0.709611 6.315268 2.468379
v -0.644989 6.250645 2.326174
v -0.644989 6.250645 2.157135
v -0.709611 6.315268 2.014930
v -0.818339 6.423995 1.944708
v -0.936651 6.542307 1.968765
v -1.026985 6.632641 2.079462
v -1.385819 6.179682 2.241655
v -1.341820 6.161457 2.403847
v -1.223794 6.112568 2.514544
v -1.069211 6.048538 2.538601
v -0.927152 5.989695 2.468379
v -0.842719 5.954722 2.326174
v -0.842719 5.954722 2.157135
v -0.927152 5.989695 2.014930
v -1.069211 6.048538 1.944708
v -1.223794 6.112568 1.968765
v -1.341820 6.161457 2.079462
v -1.500000 5.605657 2.241655
v -1.452376 5.605657 2.403847
v -1.324625 5.605657 2.514544
v -1.157305 5.605657 2.538601
v -1.003542 5.605657 2.468379
v -0.912152 5.605657 2.326174
v -0.912152 5.605657 2.157135
v -1.003542 5.605657 2.014930
v -1.157305 5.605657 1.944708
v -1.324625 5.605657 1.968765
v -1.452376 5.605657 2.079462
v -1.452376 4.949082 2.079462
v -1.324625 4.949082 1.968765
v -1.157305 4.949082 1.944708
v -1.003542 4.949082 2.014930
v -0.912152 4.949082 2.157135
v -0.912152 4.949082 2.326174
v -1.003542 4.949082 2.468379
v -1.157305 4.949082 2.538601
v -1.324625 4.949082 2.514544
v -1.452376 4.949082 2.403847
v -1.500000 4.949082 2.241655
v 1.452376 4.949082 2.079462
v 1.324625 4.949082 1.968765
v 1.157306 4.949082 1.944708
v 1.003542 4.949082 2.014930
v 0.912152 4.949082 2.157135
v 0.912152 4.949082 2.326174
v 1.003542 4.949082 2.468379
v 1.157306 4.949082 2.538601
v 1.324625 4.949082 2.514544
v 1.452376 4.949082 2.403847
v 1.500000 4.949082 2.241655
v -1.452376 4.358165 2.079462
v -1.324625 4.358165 1.968765
v -1.157305 4.358165 1.944708
v -1.003542 4.358165 2.014930
v -0.912152 4.358165 2.157135
v -0.912152 4.358165 2.326174
v -1.003542 4.358165 2.468379
v -1.157305 4.358165 2.538601
v -1.324625 4.358165 2.514544
v -1.452376 4.358165 2.403847
v -1.500000 4.358165 2.241654
v 1.452376 4.358165 2.079462
v 1.324625 4.358165 1.968765
v 1.157306 4.358165 1.944708
v 1.003542 4.358165 2.014930
v 0.912152 4.358165 2.157135
v 0.912152 4.358165 2.326174
v 1.003542 4.358165 2.468379
v 1.157306 4.358165 2.538601
v 1.324625 4.358165 2.514544
v 1.452376 4.358165 2.403847
v 1.500000 4.358165 2.241654
vn 0.9425 0.1875 0.2767
vn 0.6494 0.1292 0.7494
vn 0.1423 0.0283 0.9894
vn -0.4140 -0.0824 0.9065
vn -0.8297 -0.1650 0.5332
vn -0.9808 -0.1951 -0.0000
vn -0.8297 -0.1650 -0.5332
vn -0.4140 -0.0824 -0.9065
vn 0.1423 0.0283 -0.9894
vn 0.6494 0.1292 -0.7494
vn 0.9425 0.1875 -0.2767
vn 0.7990 0.5339 0.2767
vn 0.5505 0.3678 0.7494
vn 0.1206 0.0806 0.9894
vn -0.3510 -0.2345 0.9065
vn -0.7034 -0.4700 0.5332
vn -0.8315 -0.5556 -0.0000
vn -0.7034 -0.4700 -0.5332
vn -0.3510 -0.2345 -0.9065
vn 0.1206 0.0806 -0.9894
vn 0.5505 0.3678 -0.7494
vn 0.7990 0.5339 -0.2767
vn 0.5339 0.7990 0.2767
vn 0.3678 0.5505 0.7494
vn 0.0806 0.1206 0.9894
vn -0.2345 -0.3510 0.9065
vn -0.4700 -0.7034 0.5332
vn -0.5556 -0.8315 -0.0000
vn -0.4700 -0.7034 -0.5332
vn -0.2345 -0.3510 -0.9065
vn 0.0806 0.1206 -0.9894
vn 0.3678 0.5505 -0.7494
vn 0.5339 0.7990 -0.2767
vn 0.1875 0.9425 0.2767
vn 0.1292 0.6494 0.7494
vn 0.0283 0.1423 0.9894
vn -0.0824 -0.4140 0.9065
vn -0.1650 -0.8297 0.5332
vn -0.1951 -0.9808 -0.0000
vn -0.1650 -0.8297 -0.5332
vn -0.0824 -0.4140 -0.9065
vn 0.0283 0.1423 -0.9894
vn 0.1292 0.6494 -0.7494
vn 0.1875 0.9425 -0.2767
vn -0.1875 0.9425 0.2767
vn -0.1292 0.6494 0.7494
vn -0.0283 0.1423 0.9894
vn 0.0824 -0.4140 0.9065
vn 0.1650 -0.8297 0.5332
vn 0.1951 -0.9808 -0.0000
vn 0.1650 -0.8297 -0.5332
vn 0.0824 -0.4140 -0.9065
vn -0.0283 0.1423 -0.9894
vn -0.1292 0.6494 -0.7494
vn -0.1875 0.9425 -0.2767
vn -0.5339 0.7990 0.2767
vn -0.3678 0.5505 0.7494
vn -0.0806 0.1206 0.9894
vn 0.2345 -0.3510 0.9065
vn 0.4700 -0.7034 0.5332
vn 0.5556 -0.8315 -0.0000
vn 0.4700 -0.7034 -0.5332
vn 0.2345 -0.3510 -0.9065
vn -0.0806 0.1206 -0.9894
vn -0.3678 0.5505 -0.7494
vn -0.5339 0.7990 -0.2767
vn -0.7990 0.5339 0.2767
vn -0.5505 0.3678 0.7494
vn -0.1206 0.0806 0.9894
vn 0.3510 -0.2345 0.9065
vn 0.7034 -0.4700 0.5332
vn 0.8315 -0.5556 -0.0000
vn 0.7034 -0.4700 -0.5332
vn 0.3510 -0.2345 -0.9065
vn -0.1206 0.0806 -0.9894
vn -0.5505 0.3678 -0.7494
vn -0.7990 0.5339 -0.2767
vn -0.9425 0.1875 0.2767
vn -0.6494 0.1292 0.7494
vn -0.1423 0.0283 0.9894
vn 0.4140 -0.0824 0.9065
vn 0.8297 -0.1650 0.5332
vn 0.9808 -0.1951 -0.0000
vn 0.8297 -0.1650 -0.5332
vn 0.4140 -0.0824 -0.9065
vn -0.1423 0.0283 -0.9894
vn -0.6494 0.1292 -0.7494
vn -0.9425 0.1875 -0.2767
vn -0.0000 1.0000 -0.0000
vn -0.0000 -1.0000 -0.0000
vn -0.9595 -0.0000 0.2817
vn -0.9595 -0.0000 -0.2817
vn -0.6549 -0.0000 0.7557
vn 0.8413 -0.0000 -0.5406
vn 0.4154 -0.0000 -0.9096
vn -0.1423 -0.0000 -0.9898
vn 1.0000 -0.0000 -0.0000
vn 0.8413 -0.0000 0.5406
vn 0.4154 -0.0000 0.9096
vn -0.1423 -0.0000 0.9898
vn -0.6549 -0.0000 -0.7557
vn 0.9595 -0.0000 0.2817
vn 0.6549 -0.0000 0.7557
vn 0.1423 -0.0000 0.9898
vn -0.4154 -0.0000 0.9096
vn -0.8413 -0.0000 0.5406
vn -1.0000 -0.0000 -0.0000
vn 0.9595 -0.0000 -0.2817
vn 0.6549 -0.0000 -0.7557
vn -0.8413 -0.0000 -0.5406
vn -0.4154 -0.0000 -0.9096
vn 0.1423 -0.0000 -0.9898
vt 0.500000 0.545455
vt 0.562500 0.545455
vt 0.562500 0.636364
vt 0.500000 0.636364
vt 0.562500 0.727273
vt 0.500000 0.727273
vt 0.562500 0.818182
vt 0.500000 0.818182
vt 0.562500 0.909091
vt 0.500000 0.909091
vt 0.562500 1.000000
vt 0.500000 1.000000
vt 0.500000 0.000000
vt 0.562500 0.000000
vt 0.562500 0.090909
vt 0.500000 0.090909
vt 0.562500 0.181818
vt 0.500000 0.181818
vt 0.562500 0.272727
vt 0.500000 0.272727
vt 0.562500 0.363636
vt 0.500000 0.363636
vt 0.562500 0.454545
vt 0.500000 0.454545
vt 0.625000 0.545455
vt 0.625000 0.636364
vt 0.625000 0.727273
vt 0.625000 0.818182
vt 0.625000 0.909091
vt 0.625000 1.000000
vt 0.625000 0.000000
vt 0.625000 0.090909
vt 0.625000 0.181818
vt 0.625000 0.272727
vt 0.625000 0.363636
vt 0.625000 0.454545
vt 0.687500 0.545455
vt 0.687500 0.636364
vt 0.687500 0.727273
vt 0.687500 0.818182
vt 0.687500 0.909091
vt 0.687500 1.000000
vt 0.687500 0.000000
vt 0.687500 0.090909
vt 0.687500 0.181818
vt 0.687500 0.272727
vt 0.687500 0.363636
vt 0.687500 0.454545
vt 0.750000 0.545455
vt 0.750000 0.636364
vt 0.750000 0.727273
vt 0.750000 0.818182
vt 0.750000 0.909091
vt 0.750000 1.000000
vt 0.750000 0.000000
vt 0.750000 0.090909
vt 0.750000 0.181818
vt 0.750000 0.272727
vt 0.750000 0.363636
vt 0.750000 0.454545
vt 0.812500 0.545455
vt 0.812500 0.636364
vt 0.812500 0.727273
vt 0.812500 0.818182
vt 0.812500 0.909091
vt 0.812500 1.000000
vt 0.812500 0.000000
vt 0.812500 0.090909
vt 0.812500 0.181818
vt 0.812500 0.272727
vt 0.812500 0.363636
vt 0.812500 0.454545
vt 0.875000 0.545455
vt 0.875000 0.636364
vt 0.875000 0.727273
vt 0.875000 0.818182
vt 0.875000 0.909091
vt 0.875000 1.000000
vt 0.875000 0.000000
vt 0.875000 0.090909
vt 0.875000 0.181818
vt 0.875000 0.272727
vt 0.875000 0.363636
vt 0.875000 0.454545
vt 0.937500 0.545455
vt 0.937500 0.636364
vt 0.937500 0.727273
vt 0.937500 0.818182
vt 0.937500 0.909091
vt 0.937500 1.000000
vt 0.937500 0.000000
vt 0.937500 0.090909
vt 0.937500 0.181818
vt 0.937500 0.272727
vt 0.937500 0.363636
vt 0.937500 0.454545
vt 1.000000 0.545455
vt 1.000000 0.636364
vt 1.000000 0.727273
vt 1.000000 0.818182
vt 1.000000 0.909091
vt 1.000000 1.000000
vt 1.000000 0.000000
vt 1.000000 0.090909
vt 1.000000 0.181818
vt 1.000000 0.272727
vt 1.000000 0.363636
vt 1.000000 0.454545
vt 0.000000 0.000000
s 0
f 1/1/1 12/2/1 13/3/1 2/4/1
f 2/4/2 13/3/2 14/5/2 3/6/2
f 3/6/3 14/5/3 15/7/3 4/8/3
f 4/8/4 15/7/4 16/9/4 5/10/4
f 5/10/5 16/9/5 17/11/5 6/12/5
f 6/13/6 17/14/6 18/15/6 7/16/6
f 7/16/7 18/15/7 19/17/7 8/18/7
f 8/18/8 19/17/8 20/19/8 9/20/8
f 9/20/9 20/19/9 21/21/9 10/22/9
f 10/22/10 21/21/10 22/23/10 11/24/10
f 11/24/11 22/23/11 12/2/11 1/1/11
f 12/2/12 23/25/12 24/26/12 13/3/12
f 13/3/13 24/26/13 25/27/13 14/5/13
f 14/5/14 25/27/14 26/28/14 15/7/14
f 15/7/15 26/28/15 27/29/15 16/9/15
f 16/9/16 27/29/16 28/30/16 17/11/16
f 17/14/17 28/31/17 29/32/17 18/15/17
f 18/15/18 29/32/18 30/33/18 19/17/18
f 19/17/19 30/33/19 31/34/19 20/19/19
f 20/19/20 31/34/20 32/35/20 21/21/20
f 21/21/21 32/35/21 33/36/21 22/23/21
f 22/23/22 33/36/22 23/25/22 12/2/22
f 23/25/23 34/37/23 35/38/23 24/26/23
f 24/26/24 35/38/24 36/39/24 25/27/24
f 25/27/25 36/39/25 37/40/25 26/28/25
f 26/28/26 37/40/26 38/41/26 27/29/26
f 27/29/27 38/41/27 39/42/27 28/30/27
f 28/31/28 39/43/28 40/44/28 29/32/28
f 29/32/29 40/44/29 41/45/29 30/33/29
f 30/33/30 41/45/30 42/46/30 31/34/30
f 31/34/31 42/46/31 43/47/31 32/35/31
f 32/35/32 43/47/32 44/48/32 33/36/32
f 33/36/33 44/48/33 34/37/33 23/25/33
f 34/37/34 45/49/34 46/50/34 35/38/34
f 35/38/35 46/50/35 47/51/35 36/39/35
f 36/39/36 47/51/36 48/52/36 37/40/36
f 37/40/37 48/52/37 49/53/37 38/41/37
f 38/41/38 49/53/38 50/54/38 39/42/38
f 39/43/39 50/55/39 51/56/39 40/44/39
f 40/44/40 51/56/40 52/57/40 41/45/40
f 41/45/41 52/57/41 53/58/41 42/46/41
f 42/46/42 53/58/42 54/59/42 43/47/42
f 43/47/43 54/59/43 55/60/43 44/48/43
f 44/48/44 55/60/44 45/49/44 34/37/44
f 45/49/45 56/61/45 57/62/45 46/50/45
f 46/50/46 57/62/46 58/63/46 47/51/46
f 47/51/47 58/63/47 59/64/47 48/52/47
f 48/52/48 59/64/48 60/65/48 49/53/48
f 49/53/49 60/65/49 61/66/49 50/54/49
f 50/55/50 61/67/50 62/68/50 51/56/50
f 51/56/51 62/68/51 63/69/51 52/57/51
f 52/57/52 63/69/52 64/70/52 53/58/52
f 53/58/53 64/70/53 65/71/53 54/59/53
f 54/59/54 65/71/54 66/72/54 55/60/54
f 55/60/55 66/72/55 56/61/55 45/49/55
f 56/61/56 67/73/56 68/74/56 57/62/56
f 57/62/57 68/74/57 69/75/57 58/63/57
f 58/63/58 69/75/58 70/76/58 59/64/58
f 59/64/59 70/76/59 71/77/59 60/65/59
f 60/65/60 71/77/60 72/78/60 61/66/60
f 61/67/61 72/79/61 73/80/61 62/68/61
f 62/68/62 73/80/62 74/81/62 63/69/62
f 63/69/63 74/81/63 75/82/63 64/70/63
f 64/70/64 75/82/64 76/83/64 65/71/64
f 65/71/65 76/83/65 77/84/65 66/72/65
f 66/72/66 77/84/66 67/73/66 56/61/66
f 67/73/67 78/85/67 79/86/67 68/74/67
f 68/74/68 79/86/68 80/87/68 69/75/68
f 69/75/69 80/87/69 81/88/69 70/76/69
f 70/76/70 81/88/70 82/89/70 71/77/70
f 71/77/71 82/89/71 83/90/71 72/78/71
f 72/79/72 83/91/72 84/92/72 73/80/72
f 73/80/73 84/92/73 85/93/73 74/81/73
f 74/81/74 85/93/74 86/94/74 75/82/74
f 75/82/75 86/94/75 87/95/75 76/83/75
f 76/83/76 87/95/76 88/96/76 77/84/76
f 77/84/77 88/96/77 78/85/77 67/73/77
f 78/85/78 89/97/78 90/98/78 79/86/78
f 79/86/79 90/98/79 91/99/79 80/87/79
f 80/87/80 91/99/80 92/100/80 81/88/80
f 81/88/81 92/100/81 93/101/81 82/89/81
f 82/89/82 93/101/82 94/102/82 83/90/82
f 83/91/83 94/103/83 95/104/83 84/92/83
f 84/92/84 95/104/84 96/105/84 85/93/84
f 85/93/85 96/105/85 97/106/85 86/94/85
f 86/94/86 97/106/86 98/107/86 87/95/86
f 87/95/87 98/107/87 99/108/87 88/96/87
f 88/96/88 99/108/88 89/97/88 78/85/88
f 101/109/89 100/109/89 110/109/89 109/109/89 108/109/89 107/109/89 106/109/89 105/109/89 104/109/89 103/109/89 102/109/89
f 112/109/90 111/109/90 121/109/90 120/109/90 119/109/90 118/109/90 117/109/90 116/109/90 115/109/90 114/109/90 113/109/90
f 123/109/89 122/109/89 132/109/89 131/109/89 130/109/89 129/109/89 128/109/89 127/109/89 126/109/89 125/109/89 124/109/89
f 134/109/90 133/109/90 143/109/90 142/109/90 141/109/90 140/109/90 139/109/90 138/109/90 137/109/90 136/109/90 135/109/90
f 90/98/91 89/97/91 110/109/91 109/109/91
f 110/109/92 89/97/92 99/108/92 100/109/92
f 109/109/93 108/109/93 91/99/93 90/98/93
f 103/109/94 104/109/94 126/109/94 125/109/94
f 125/109/95 124/109/95 102/109/95 103/109/95
f 124/109/96 123/109/96 101/109/96 102/109/96
f 104/109/97 105/109/97 127/109/97 126/109/97
f 127/109/98 105/109/98 106/109/98 128/109/98
f 128/109/99 106/109/99 107/109/99 129/109/99
f 129/109/100 107/109/100 108/109/100 130/109/100
f 99/108/101 98/107/101 101/109/101 100/109/101
f 91/109/100 108/109/100 107/109/100 92/109/100
f 92/109/99 107/109/99 106/109/99 93/109/99
f 93/109/98 106/109/98 105/109/98 94/109/98
f 94/109/97 105/109/97 104/109/97 95/109/97
f 95/109/94 104/109/94 103/109/94 96/109/94
f 96/109/95 103/109/95 102/109/95 97/109/95
f 97/109/96 102/109/96 101/109/96 98/109/96
f 109/109/93 131/109/93 130/109/93 108/109/93
f 110/109/91 132/109/91 131/109/91 109/109/91
f 100/109/92 122/109/92 132/109/92 110/109/92
f 101/109/101 123/109/101 122/109/101 100/109/101
f 2/4/102 120/109/102 121/109/102 1/1/102
f 120/109/103 2/4/103 3/6/103 119/109/103
f 119/109/104 3/6/104 4/8/104 118/109/104
f 118/109/105 4/8/105 5/10/105 117/109/105
f 117/109/106 5/10/106 6/13/106 116/109/106
f 116/109/107 6/13/107 7/16/107 115/109/107
f 114/109/98 115/109/98 137/109/98 136/109/98
f 1/1/108 121/109/108 111/109/108 11/24/108
f 111/109/93 112/109/93 134/109/93 133/109/93
f 134/109/100 112/109/100 113/109/100 135/109/100
f 135/109/99 113/109/99 114/109/99 136/109/99
f 141/109/104 119/109/104 118/109/104 140/109/104
f 139/109/106 117/109/106 116/109/106 138/109/106
f 143/109/102 121/109/102 120/109/102 142/109/102
f 112/109/109 10/109/109 11/109/109 111/109/109
f 133/109/108 111/109/108 121/109/108 143/109/108
f 142/109/103 120/109/103 119/109/103 141/109/103
f 140/109/105 118/109/105 117/109/105 139/109/105
f 138/109/107 116/109/107 115/109/107 137/109/107
f 115/109/110 7/109/110 8/109/110 114/109/110
f 114/109/111 8/109/111 9/109/111 113/109/111
f 113/109/112 9/109/112 10/109/112 112/109/112
