# Blender 4.4.3
# www.blender.org
mtllib bookshelf_texture2.mtl
o bookshelf_darker_texture
v -0.550000 0.000000 0.150000
v -0.550000 1.760000 0.150000
v -0.550000 0.000000 -0.150000
v -0.550000 1.760000 -0.150000
v 0.550000 0.000000 0.150000
v 0.550000 1.760000 0.150000
v 0.550000 0.000000 -0.150000
v 0.550000 1.760000 -0.150000
vn -1.0000 -0.0000 -0.0000
vn -0.0000 -0.0000 -1.0000
vn 1.0000 -0.0000 -0.0000
vn -0.0000 -0.0000 1.0000
vn -0.0000 -1.0000 -0.0000
vn -0.0000 1.0000 -0.0000
vt 0.575680 0.723712
vt 0.575680 0.000000
vt 0.699040 0.000000
vt 0.699040 0.723712
vt 0.000000 0.723712
vt 0.000000 0.000000
vt 0.452320 0.000000
vt 0.452320 0.723712
vt 0.088197 0.768206
vt 0.362881 0.762119
vt 0.362881 0.961593
vt 0.086593 0.942748
vt 0.822400 0.000000
vt 0.822400 0.452320
vt 0.699040 0.452320
vt 0.822400 0.452320
vt 0.822400 0.904640
vt 0.699040 0.904640
vt 0.699040 0.452320
s 0
usemtl top2
f 1/1/1 2/2/1 4/3/1 3/4/1
f 7/8/3 8/7/3 6/2/3 5/1/3
f 3/13/5 7/14/5 5/15/5 1/3/5
f 8/16/6 4/17/6 2/18/6 6/19/6
usemtl bookshelf2
f 3/5/2 4/6/2 8/7/2 7/8/2
f 5/9/4 6/10/4 2/11/4 1/12/4
