# Blender 4.4.1
# www.blender.org
mtllib bookshelf.mtl
o Cube
v 0.360000 0.760000 -0.360000
v 0.360000 0.040000 -0.360000
v 0.360000 0.760000 0.360000
v 0.360000 0.040000 0.360000
v -0.360000 0.760000 -0.360000
v -0.360000 0.040000 -0.360000
v -0.360000 0.760000 0.360000
v -0.360000 0.040000 0.360000
vn -0.0000 1.0000 -0.0000
vn -0.0000 -0.0000 1.0000
vn -1.0000 -0.0000 -0.0000
vn -0.0000 -1.0000 -0.0000
vn 1.0000 -0.0000 -0.0000
vn -0.0000 -0.0000 -1.0000
vt 0.668475 0.667032
vt 0.999800 0.667032
vt 0.999800 0.998357
vt 0.668475 0.998357
vt 0.336189 0.333688
vt 0.336189 0.000200
vt 0.669677 0.000200
vt 0.669677 0.333688
vt 0.668733 0.666632
vt 0.336189 0.666632
vt 0.336189 0.334088
vt 0.668733 0.334088
vt 0.000200 0.335789
vt 0.000200 0.000200
vt 0.335789 0.000200
vt 0.335789 0.335789
vt 0.668075 0.998918
vt 0.336189 0.998918
vt 0.336189 0.667032
vt 0.668075 0.667032
vt 0.000200 0.671142
vt 0.000200 0.336189
vt 0.335153 0.336189
vt 0.335153 0.671142
s 0
usemtl top.001
f 1/1/1 5/2/1 7/3/1 3/4/1
f 6/13/4 2/14/4 4/15/4 8/16/4
usemtl bookshelf.001
f 4/5/2 3/6/2 7/7/2 8/8/2
f 8/9/3 7/10/3 5/11/3 6/12/3
f 2/17/5 1/18/5 3/19/5 4/20/5
f 6/21/6 5/22/6 1/23/6 2/24/6
