<?xml version="1.0" encoding="utf-8"?>
<COLLADA xmlns="http://www.collada.org/2005/11/COLLADASchema" version="1.4.1" xmlns:xsi="http://www.w3.org/2001/XMLSchema-instance">
  <asset>
    <contributor>
      <author>Blender User</author>
      <authoring_tool>Blender 4.4.3 commit date:2025-04-29, commit time:14:09, hash:802179c51ccc</authoring_tool>
    </contributor>
    <created>2025-06-08T18:41:58</created>
    <modified>2025-06-08T18:41:58</modified>
    <unit name="meter" meter="1"/>
    <up_axis>Z_UP</up_axis>
  </asset>
  <library_effects>
    <effect id="Madeira_Clara_003-effect">
      <profile_COMMON>
        <technique sid="common">
          <lambert>
            <emission>
              <color sid="emission">0 0 0 1</color>
            </emission>
            <diffuse>
              <color sid="diffuse">0.04640775 0.02065546 0.007540451 1</color>
            </diffuse>
            <index_of_refraction>
              <float sid="ior">1.5</float>
            </index_of_refraction>
          </lambert>
        </technique>
      </profile_COMMON>
    </effect>
    <effect id="Vidro_Azul_006-effect">
      <profile_COMMON>
        <technique sid="common">
          <lambert>
            <emission>
              <color sid="emission">0 0 0 1</color>
            </emission>
            <diffuse>
              <color sid="diffuse">0.05054226 0.0397534 0.05795293 1</color>
            </diffuse>
            <reflectivity>
              <float sid="specular">0.3254545</float>
            </reflectivity>
            <transparent opaque="A_ONE">
              <color sid="alpha">0 0 0 0.6794872</color>
            </transparent>
            <index_of_refraction>
              <float sid="ior">4.2</float>
            </index_of_refraction>
          </lambert>
        </technique>
      </profile_COMMON>
    </effect>
    <effect id="Vidro_Azul_007-effect">
      <profile_COMMON>
        <technique sid="common">
          <lambert>
            <emission>
              <color sid="emission">0 0 0 1</color>
            </emission>
            <diffuse>
              <color sid="diffuse">0 1 1 1</color>
            </diffuse>
            <reflectivity>
              <float sid="specular">0.5</float>
            </reflectivity>
            <transparent opaque="A_ONE">
              <color sid="alpha">0 0 0 0.6794872</color>
            </transparent>
            <index_of_refraction>
              <float sid="ior">1.5</float>
            </index_of_refraction>
          </lambert>
        </technique>
      </profile_COMMON>
    </effect>
  </library_effects>
  <library_images/>
  <library_materials>
    <material id="Madeira_Clara_003-material" name="Madeira_Clara.003">
      <instance_effect url="#Madeira_Clara_003-effect"/>
    </material>
    <material id="Vidro_Azul_006-material" name="Vidro_Azul.006">
      <instance_effect url="#Vidro_Azul_006-effect"/>
    </material>
    <material id="Vidro_Azul_007-material" name="Vidro_Azul.007">
      <instance_effect url="#Vidro_Azul_007-effect"/>
    </material>
  </library_materials>
  <library_geometries>
    <geometry id="Mesh_010-mesh" name="Mesh.010">
      <mesh>
        <source id="Mesh_010-mesh-positions">
          <float_array id="Mesh_010-mesh-positions-array" count="192">0.01754796 0.001321077 0.05987113 1.492 0.001321077 0.05987113 0.01754796 3.918217 0.05987113 0.01754796 3.918217 -0.2495961 0.01754796 0.001321077 -0.2495961 1.492 0.001321077 -0.2495961 1.446788 3.058821 0.05987113 1.314233 3.33847 0.05987113 1.103368 3.578608 0.05987113 0.8285632 3.762873 0.05987113 0.5085464 3.878708 0.05987113 0.1651259 3.918217 0.05987113 1.492 2.758722 0.05987113 1.492 2.758722 -0.2495961 0.1651259 3.918217 -0.2495961 0.5085464 3.878708 -0.2495961 0.8285632 3.762873 -0.2495961 1.103368 3.578608 -0.2495961 1.314233 3.33847 -0.2495961 1.446788 3.058821 -0.2495961 1.229862 3.282998 0.05987113 1.350103 3.029327 0.05987113 1.036837 3.502819 0.05987113 0.7830285 3.673005 0.05987113 0.4855033 3.7807 0.05987113 0.1593925 3.818217 0.05987113 0.1175479 3.818217 0.05987113 0.1175479 0.1013209 0.05987113 1.392 0.1013209 0.05987113 1.392 2.751231 0.05987113 1.229862 3.282998 -0.02365356 1.350103 3.029327 -0.02365356 1.036837 3.502819 -0.02365356 0.7830285 3.673005 -0.02365356 0.4855033 3.7807 -0.02365356 0.1593925 3.818217 -0.02365356 0.1175479 3.818217 -0.02365356 0.1175479 0.1013209 -0.02365356 1.392 0.1013209 -0.02365356 1.392 2.751231 -0.02365356 0.1404724 1.323356 0.1678518 0.2110899 1.323356 0.1678518 0.1404724 2.071445 0.1678518 0.2110899 2.071445 0.1678518 0.1404724 2.071445 0.05632919 0.2110899 2.071445 0.05632919 0.1404724 1.323356 0.05632919 0.2110899 1.323356 0.05632919 0.1404724 1.398195 0.1678518 0.1404724 1.996606 0.1678518 0.2110899 1.996606 0.1678518 0.2110899 1.398195 0.1678518 0.2110899 1.996606 0.05632919 0.2110899 1.398195 0.05632919 0.1404724 1.996606 0.05632919 0.1404724 1.398195 0.05632919 0.1404724 2.071445 -0.03229767 0.2110899 2.071445 -0.03229767 0.2110899 1.996606 -0.03229767 0.1404724 1.996606 -0.03229767 0.2110899 1.398195 -0.03229767 0.1404724 1.398195 -0.03229767 0.2110899 1.323356 -0.03229767 0.1404724 1.323356 -0.03229767</float_array>
          <technique_common>
            <accessor source="#Mesh_010-mesh-positions-array" count="64" stride="3">
              <param name="X" type="float"/>
              <param name="Y" type="float"/>
              <param name="Z" type="float"/>
            </accessor>
          </technique_common>
        </source>
        <source id="Mesh_010-mesh-normals">
          <float_array id="Mesh_010-mesh-normals-array" count="216">0.08016639 0.9967816 0 0 1 0 0 -1 0 1 0 0 0.9998931 0.01462483 0 -1 0 0 0.2280347 0.9736531 0 0.08023107 0.9967764 0 0.4504455 0.892804 0 0.2280408 0.9736516 0 0.6580392 0.7529838 0 0.4504518 0.8928008 0 0.8343468 0.55124 0 0.6580451 0.7529786 0 0.9560526 0.2931955 5.66475e-7 0.8343513 0.551233 0 0.9560551 0.2931873 0 0 0 1 0 0 1 0 0 1 1.75206e-7 0 -1 0 0 -1 0 0 -1 0 0 1 0 0 1 0 0 1 0 0 1 0 0 1 0 0 1 0 0 1 0 0 1 0 0 1 0 0 1 0 0 1 0 0 1 0 0 1 0 0 1 0 0 1 0 0 1 0 0 1 0 0 1 0 0 1 -0.9036251 -0.4283244 0 -0.9036251 -0.4283243 0 -0.9036251 -0.4283243 0 -0.7514224 -0.6598217 0 -0.7514217 -0.6598223 0 -0.7514216 -0.6598225 0 -0.5569195 -0.8305665 0 -0.5569195 -0.8305667 0 -0.5569194 -0.8305666 0 -0.3403573 -0.9402962 0 -0.3403573 -0.9402962 0 -0.3403572 -0.9402962 0 -0.1142886 -0.9934476 0 -0.1142886 -0.9934476 0 -0.9888409 -0.1489761 0 0.9998902 0.01482188 2.06768e-5 0 0 1 0 0 1 0 0 1 0 0 1 0 0 1 0 0 1 0 0 -1 0 0 -1 0 0 -1 -0.9036251 -0.4283244 0 -0.7514225 -0.6598215 0 -0.3403573 -0.9402962 0 -0.1142886 -0.9934477 0 -0.9888408 -0.1489761 0</float_array>
          <technique_common>
            <accessor source="#Mesh_010-mesh-normals-array" count="72" stride="3">
              <param name="X" type="float"/>
              <param name="Y" type="float"/>
              <param name="Z" type="float"/>
            </accessor>
          </technique_common>
        </source>
        <source id="Mesh_010-mesh-map-0">
          <float_array id="Mesh_010-mesh-map-0-array" count="720">0.1588801 0.6231569 0.1986002 0.6420986 0.1588801 0.6420986 0.1191602 0.6919795 0.07944005 0.5027336 0.1191602 0.5027336 0.03972011 0.5027336 0 0.856646 0 0.5027336 0.9205598 0.5027335 0.96028 0 0.96028 0.5027335 0.1588801 0.5790789 0.1986002 0.6231569 0.1588801 0.6231569 0.1588801 0.5380048 0.1986002 0.5790789 0.1588801 0.5790789 0.1588801 0.5027335 0.1986002 0.5380048 0.1588801 0.5380048 0 0.9310566 0.03972011 0.9618783 0 0.9618783 0 0.8951637 0.03972011 0.9310566 0 0.9310566 0 0.856646 0.03972011 0.8951637 0 0.8951637 0.7569839 0.4770635 0.9205599 0.4770635 0.9205599 0.8171795 0.4283729 0.4591447 0.4013084 0.428323 0.3784919 0.3539124 0.7341675 0.428323 0.7387714 0.3886445 0.751181 0.3924301 0.707103 0.4591447 0.7233384 0.4212031 0.7341675 0.428323 0.6718318 0.4827951 0.6985637 0.4494172 0.707103 0.4591447 0.6307576 0.4976626 0.6659874 0.4712606 0.6718318 0.4827951 0.5866796 0.5027335 0.6278001 0.4850832 0.6307576 0.4976626 0.5866796 0.5027335 0.580573 0.4898985 0.5859437 0.4898985 0.567738 0 0.580573 0.4898985 0.567738 0.5027335 0.7569839 0 0.580573 0.01283496 0.567738 0 0.7569839 0.3539124 0.744149 0.01283496 0.7569839 0 0.7569839 0.3539124 0.7387714 0.3886445 0.744149 0.3529509 0.2597608 0.5309477 0.2704812 0.5635063 0.2597608 0.5635063 0.2597608 0.5027336 0.2704812 0.5309477 0.2597608 0.5309477 0.4053987 0.5881479 0.416119 0.6207243 0.4053987 0.6207243 0.4053987 0.5499606 0.416119 0.5881479 0.4053987 0.5881479 0.4053987 0.5081043 0.416119 0.5499606 0.4053987 0.5499606 0.4053987 0.5027335 0.416119 0.5081043 0.4053987 0.5081043 0.2383202 0.5027336 0.2490405 0.9797971 0.2383201 0.9797971 0.3839581 0.5027335 0.3946785 0.6663095 0.3839581 0.6663095 0.2597608 0.5991999 0.2704812 0.9393159 0.2597608 0.9393159 0.2597608 0.5635063 0.2704812 0.5991999 0.2597608 0.5991999 0.4902856 0.5027335 0.4812219 0.5170475 0.4812219 0.5027335 0.4902857 0.5170475 0.4993495 0.5027335 0.4993495 0.5170475 0.3325797 0.5123391 0.3468937 0.5891452 0.3325797 0.5891452 0.435903 0.5123391 0.4449667 0.5891452 0.435903 0.5891452 0.3582689 0.5123391 0.3725829 0.5891452 0.3582689 0.5891452 0.4540305 0.5027336 0.4630943 0.5795397 0.4540305 0.5795397 0.4449667 0.5891452 0.435903 0.5987508 0.435903 0.5891452 0.517477 0.5219448 0.5265408 0.5123392 0.5265408 0.5219448 0.3725829 0.5891452 0.3582689 0.5987508 0.3582689 0.5891452 0.3325797 0.5123391 0.3468937 0.5027335 0.3468937 0.5123391 0.4449667 0.5027336 0.435903 0.5123391 0.435903 0.5027336 0.3725829 0.5027336 0.3582689 0.5123391 0.3582689 0.5027336 0.4993495 0.5350896 0.5084133 0.5254841 0.5084133 0.5350896 0.3325797 0.5987507 0.3468937 0.5891452 0.3468937 0.5987507 0.4902856 0.5170475 0.4812219 0.5284227 0.4812219 0.5170475 0.3725829 0.5891452 0.3839581 0.5987508 0.3725829 0.5987508 0.5084133 0.5141088 0.4993495 0.525484 0.4993495 0.5141088 0.3468937 0.5027335 0.3582689 0.5123391 0.3468937 0.5123391 0.517477 0.5141088 0.5084132 0.525484 0.5084132 0.5141088 0.3725829 0.5027336 0.3839581 0.5123391 0.3725829 0.5123391 0.4993495 0.5170475 0.4902857 0.5284227 0.4902857 0.5170475 0.3468937 0.5891452 0.3582689 0.5987507 0.3468937 0.5987507 0.1588801 0.6231569 0.1986002 0.6231569 0.1986002 0.6420986 0.1191602 0.6919795 0.07944005 0.6919795 0.07944005 0.5027336 0.03972011 0.5027336 0.03972011 0.856646 0 0.856646 0.9205598 0.5027335 0.9205599 0 0.96028 0 0.1588801 0.5790789 0.1986002 0.5790789 0.1986002 0.6231569 0.1588801 0.5380048 0.1986002 0.5380048 0.1986002 0.5790789 0.1588801 0.5027335 0.1986002 0.5027335 0.1986002 0.5380048 0 0.9310566 0.03972011 0.9310566 0.03972011 0.9618783 0 0.8951637 0.03972011 0.8951637 0.03972011 0.9310566 0 0.856646 0.03972011 0.856646 0.03972011 0.8951637 0.9205599 0.8171795 0.9151824 0.852873 0.8997493 0.8854317 0.8997493 0.8854317 0.8749746 0.9136458 0.9205599 0.8171795 0.8749746 0.9136458 0.8423983 0.9354891 0.9205599 0.8171795 0.8423983 0.9354891 0.804211 0.9493117 0.9205599 0.8171795 0.804211 0.9493117 0.7623546 0.954127 0.9205599 0.8171795 0.7623546 0.954127 0.7569839 0.954127 0.9205599 0.8171795 0.7569839 0.954127 0.7569839 0.4770635 0.9205599 0.8171795 0.3842949 0.3924301 0.3784919 0.3539124 0.4013084 0.428323 0.3784919 0.3539124 0.3784919 0 0.5677379 0 0.5677379 0 0.5677379 0.5027335 0.3784919 0.3539124 0.3784919 0.3539124 0.5677379 0.5027335 0.5487963 0.5027335 0.5487963 0.5027335 0.5047183 0.4976626 0.3784919 0.3539124 0.5047183 0.4976626 0.4636441 0.4827951 0.3784919 0.3539124 0.4636441 0.4827951 0.4283729 0.4591447 0.3784919 0.3539124 0.7341675 0.428323 0.7233384 0.4212031 0.7387714 0.3886445 0.707103 0.4591447 0.6985637 0.4494172 0.7233384 0.4212031 0.6718318 0.4827951 0.6659874 0.4712606 0.6985637 0.4494172 0.6307576 0.4976626 0.6278001 0.4850832 0.6659874 0.4712606 0.5866796 0.5027335 0.5859437 0.4898985 0.6278001 0.4850832 0.5866796 0.5027335 0.567738 0.5027335 0.580573 0.4898985 0.567738 0 0.580573 0.01283496 0.580573 0.4898985 0.7569839 0 0.744149 0.01283496 0.580573 0.01283496 0.7569839 0.3539124 0.744149 0.3529509 0.744149 0.01283496 0.7569839 0.3539124 0.751181 0.3924301 0.7387714 0.3886445 0.2597608 0.5309477 0.2704812 0.5309477 0.2704812 0.5635063 0.2597608 0.5027336 0.2704812 0.5027336 0.2704812 0.5309477 0.4053987 0.5881479 0.416119 0.5881479 0.416119 0.6207243 0.4053987 0.5499606 0.416119 0.5499606 0.416119 0.5881479 0.4053987 0.5081043 0.416119 0.5081043 0.416119 0.5499606 0.4053987 0.5027335 0.416119 0.5027335 0.416119 0.5081043 0.2383202 0.5027336 0.2490406 0.5027336 0.2490405 0.9797971 0.3839581 0.5027335 0.3946785 0.5027336 0.3946785 0.6663095 0.2597608 0.5991999 0.2704812 0.5991999 0.2704812 0.9393159 0.2597608 0.5635063 0.2704812 0.5635063 0.2704812 0.5991999 0.4902856 0.5027335 0.4902856 0.5170475 0.4812219 0.5170475 0.4902857 0.5170475 0.4902857 0.5027335 0.4993495 0.5027335 0.3325797 0.5123391 0.3468937 0.5123391 0.3468937 0.5891452 0.435903 0.5123391 0.4449667 0.5123391 0.4449667 0.5891452 0.3582689 0.5123391 0.3725829 0.5123391 0.3725829 0.5891452 0.4540305 0.5027336 0.4630943 0.5027336 0.4630943 0.5795397 0.4449667 0.5891452 0.4449667 0.5987508 0.435903 0.5987508 0.517477 0.5219448 0.517477 0.5123392 0.5265408 0.5123392 0.3725829 0.5891452 0.3725829 0.5987508 0.3582689 0.5987508 0.3325797 0.5123391 0.3325797 0.5027335 0.3468937 0.5027335 0.4449667 0.5027336 0.4449667 0.5123391 0.435903 0.5123391 0.3725829 0.5027336 0.3725829 0.5123391 0.3582689 0.5123391 0.4993495 0.5350896 0.4993495 0.5254841 0.5084133 0.5254841 0.3325797 0.5987507 0.3325797 0.5891452 0.3468937 0.5891452 0.4902856 0.5170475 0.4902856 0.5284227 0.4812219 0.5284227 0.3725829 0.5891452 0.3839581 0.5891452 0.3839581 0.5987508 0.5084133 0.5141088 0.5084133 0.525484 0.4993495 0.525484 0.3468937 0.5027335 0.3582689 0.5027335 0.3582689 0.5123391 0.517477 0.5141088 0.517477 0.525484 0.5084132 0.525484 0.3725829 0.5027336 0.3839581 0.5027336 0.3839581 0.5123391 0.4993495 0.5170475 0.4993495 0.5284227 0.4902857 0.5284227 0.3468937 0.5891452 0.3582689 0.5891452 0.3582689 0.5987507</float_array>
          <technique_common>
            <accessor source="#Mesh_010-mesh-map-0-array" count="360" stride="2">
              <param name="S" type="float"/>
              <param name="T" type="float"/>
            </accessor>
          </technique_common>
        </source>
        <vertices id="Mesh_010-mesh-vertices">
          <input semantic="POSITION" source="#Mesh_010-mesh-positions"/>
        </vertices>
        <triangles material="Madeira_Clara_003-material" count="112">
          <input semantic="VERTEX" source="#Mesh_010-mesh-vertices" offset="0"/>
          <input semantic="NORMAL" source="#Mesh_010-mesh-normals" offset="1"/>
          <input semantic="TEXCOORD" source="#Mesh_010-mesh-map-0" offset="2" set="0"/>
          <p>11 0 0 3 1 1 2 1 2 5 2 3 0 2 4 4 2 5 5 3 6 12 4 7 1 3 8 0 5 9 3 5 10 4 5 11 10 6 12 14 7 13 11 0 14 9 8 15 15 9 16 10 6 17 8 10 18 16 11 19 9 8 20 7 12 21 17 13 22 8 10 23 6 14 24 18 15 25 7 12 26 12 4 27 19 16 28 6 14 29 17 20 33 18 21 34 13 22 35 7 23 36 21 24 37 6 25 38 8 26 39 20 27 40 7 23 41 9 28 42 22 29 43 8 26 44 10 30 45 23 31 46 9 28 47 11 32 48 24 33 49 10 30 50 11 32 51 26 34 52 25 35 53 0 36 54 26 34 55 2 37 56 1 38 57 27 18 58 0 36 59 12 39 60 28 40 61 1 38 62 12 39 63 21 24 64 29 41 65 20 42 66 31 43 67 21 44 68 22 45 69 30 46 70 20 47 71 23 48 72 32 49 73 22 50 74 24 51 75 33 52 76 23 53 77 25 54 78 34 55 79 24 55 80 26 2 81 35 2 82 25 2 83 27 3 84 36 3 85 26 3 86 28 1 87 37 1 88 27 1 89 29 5 90 38 5 91 28 5 92 21 56 93 39 56 94 29 56 95 43 1 96 44 1 97 42 1 98 47 2 99 40 2 100 46 2 101 49 5 102 55 5 103 48 5 104 48 18 105 50 18 106 49 18 107 51 3 108 52 3 109 50 3 110 53 21 111 54 21 112 52 21 113 50 18 114 42 18 115 49 18 116 57 21 117 59 21 118 56 21 119 52 3 120 43 3 121 50 3 122 49 5 123 44 5 124 54 5 125 41 18 126 48 18 127 40 18 128 47 3 129 51 3 130 41 3 131 60 21 132 63 21 133 61 21 134 40 5 135 55 5 136 46 5 137 45 1 138 56 1 139 44 1 140 52 3 141 57 3 142 45 3 143 54 2 144 58 2 145 52 2 146 44 5 147 59 5 148 54 5 149 53 1 150 61 1 151 55 1 152 47 3 153 60 3 154 53 3 155 46 2 156 62 2 157 47 2 158 55 5 159 63 5 160 46 5 161 11 0 162 14 7 163 3 1 164 5 2 165 1 2 166 0 2 167 5 3 168 13 57 169 12 4 170 0 5 171 2 5 172 3 5 173 10 6 174 15 9 175 14 7 176 9 8 177 16 11 178 15 9 179 8 10 180 17 13 181 16 11 182 7 12 183 18 15 184 17 13 185 6 14 186 19 16 187 18 15 188 12 4 189 13 57 190 19 16 191 19 21 213 13 22 214 18 21 215 13 22 216 5 21 217 4 64 218 4 64 219 3 65 220 13 22 221 13 22 222 3 65 223 14 21 224 14 21 225 15 21 226 13 22 227 15 21 228 16 66 229 13 22 230 16 66 231 17 20 232 13 22 233 7 23 234 20 27 235 21 24 236 8 26 237 22 29 238 20 27 239 9 28 240 23 31 241 22 29 242 10 30 243 24 33 244 23 31 245 11 32 246 25 35 247 24 33 248 11 32 249 2 37 250 26 34 251 0 36 252 27 18 253 26 34 254 1 38 255 28 40 256 27 18 257 12 39 258 29 41 259 28 40 260 12 39 261 6 25 262 21 24 263 20 42 264 30 67 265 31 43 266 22 45 267 32 68 268 30 46 269 23 48 270 33 48 271 32 49 272 24 51 273 34 69 274 33 52 275 25 54 276 35 70 277 34 55 278 26 2 279 36 2 280 35 2 281 27 3 282 37 3 283 36 3 284 28 1 285 38 1 286 37 1 287 29 5 288 39 5 289 38 5 290 21 56 291 31 71 292 39 56 293 43 1 294 45 1 295 44 1 296 47 2 297 41 2 298 40 2 299 49 5 300 54 5 301 55 5 302 48 18 303 51 18 304 50 18 305 51 3 306 53 3 307 52 3 308 53 21 309 55 21 310 54 21 311 50 18 312 43 18 313 42 18 314 57 21 315 58 21 316 59 21 317 52 3 318 45 3 319 43 3 320 49 5 321 42 5 322 44 5 323 41 18 324 51 18 325 48 18 326 47 3 327 53 3 328 51 3 329 60 21 330 62 21 331 63 21 332 40 5 333 48 5 334 55 5 335 45 1 336 57 1 337 56 1 338 52 3 339 58 3 340 57 3 341 54 2 342 59 2 343 58 2 344 44 5 345 56 5 346 59 5 347 53 1 348 60 1 349 61 1 350 47 3 351 62 3 352 60 3 353 46 2 354 63 2 355 62 2 356 55 5 357 61 5 358 63 5 359</p>
        </triangles>
        <triangles material="Vidro_Azul_006-material" count="8">
          <input semantic="VERTEX" source="#Mesh_010-mesh-vertices" offset="0"/>
          <input semantic="NORMAL" source="#Mesh_010-mesh-normals" offset="1"/>
          <input semantic="TEXCOORD" source="#Mesh_010-mesh-map-0" offset="2" set="0"/>
          <p>37 17 30 38 18 31 39 19 32 39 19 192 31 58 193 30 59 194 30 59 195 32 60 196 39 19 197 32 60 198 33 61 199 39 19 200 33 61 201 34 62 202 39 19 203 34 62 204 35 18 205 39 19 206 35 18 207 36 63 208 39 19 209 36 63 210 37 17 211 39 19 212</p>
        </triangles>
      </mesh>
    </geometry>
    <geometry id="Mesh_009-mesh" name="Mesh.009">
      <mesh>
        <source id="Mesh_009-mesh-positions">
          <float_array id="Mesh_009-mesh-positions-array" count="192">-0.01550722 0.001321077 -0.2495923 -1.48996 0.001321077 -0.2495923 -0.01550722 3.918217 -0.2495923 -0.01550722 3.918217 0.05987304 -0.01550722 0.001321077 0.05987304 -1.48996 0.001321077 0.05987304 -1.444748 3.058821 -0.2495923 -1.312192 3.33847 -0.2495923 -1.101327 3.578608 -0.2495923 -0.8265225 3.762873 -0.2495923 -0.5065056 3.878708 -0.2495923 -0.1630851 3.918217 -0.2495923 -1.48996 2.758722 -0.2495923 -1.48996 2.758722 0.05987304 -0.1630851 3.918217 0.05987304 -0.5065056 3.878708 0.05987304 -0.8265225 3.762873 0.05987304 -1.101327 3.578608 0.05987304 -1.312192 3.33847 0.05987304 -1.444748 3.058821 0.05987304 -1.38996 2.751231 0.05987304 -1.38996 0.1013209 0.05987304 -0.1155072 0.1013209 0.05987304 -0.1155072 3.818217 0.05987304 -0.1573518 3.818217 0.05987304 -0.4834626 3.7807 0.05987304 -0.7809877 3.673005 0.05987304 -1.034796 3.502819 0.05987304 -1.227821 3.282998 0.05987304 -1.348063 3.029327 0.05987304 -1.38996 2.751231 -0.02364975 -1.38996 0.1013209 -0.02364975 -0.1155072 0.1013209 -0.02364975 -0.1155072 3.818217 -0.02364975 -0.1573518 3.818217 -0.02364975 -0.4834626 3.7807 -0.02364975 -0.7809877 3.673005 -0.02364975 -1.034796 3.502819 -0.02364975 -1.227821 3.282998 -0.02364975 -1.348063 3.029327 -0.02364975 -0.2144902 1.323356 0.1678518 -0.1438727 1.323356 0.1678518 -0.2144902 2.071445 0.1678518 -0.1438727 2.071445 0.1678518 -0.2144902 2.071445 0.05632919 -0.1438727 2.071445 0.05632919 -0.2144902 1.323356 0.05632919 -0.1438727 1.323356 0.05632919 -0.2144902 1.398195 0.1678518 -0.2144902 1.996606 0.1678518 -0.1438727 1.996606 0.1678518 -0.1438727 1.398195 0.1678518 -0.1438727 1.996606 0.05632919 -0.1438727 1.398195 0.05632919 -0.2144902 1.996606 0.05632919 -0.2144902 1.398195 0.05632919 -0.2144902 2.071445 -0.03229767 -0.1438727 2.071445 -0.03229767 -0.1438727 1.996606 -0.03229767 -0.2144902 1.996606 -0.03229767 -0.1438727 1.398195 -0.03229767 -0.2144902 1.398195 -0.03229767 -0.1438727 1.323356 -0.03229767 -0.2144902 1.323356 -0.03229767</float_array>
          <technique_common>
            <accessor source="#Mesh_009-mesh-positions-array" count="64" stride="3">
              <param name="X" type="float"/>
              <param name="Y" type="float"/>
              <param name="Z" type="float"/>
            </accessor>
          </technique_common>
        </source>
        <source id="Mesh_009-mesh-normals">
          <float_array id="Mesh_009-mesh-normals-array" count="201">-0.08016639 0.9967816 0 0 1 0 0 -1 0 -1 0 0 -0.9998931 0.01462465 0 1 0 0 -0.2280347 0.973653 0 -0.08023107 0.9967764 0 -0.4504454 0.8928041 0 -0.2280408 0.9736516 0 -0.6580008 0.7530172 7.86508e-7 -0.4504517 0.8928008 0 -0.8343185 0.5512829 0 -0.6580069 0.7530121 0 -0.9560527 0.2931952 -5.66475e-7 -0.8343232 0.5512757 0 -0.9560551 0.2931872 0 0 0 -1 0 0 -1 0 0 1 0 0 1 0 0 1 0 0 1 0 0 1 0 0 1 0 0 1 0 0 1 0 0 1 0 0 1 0 0 1 0 0 1 0 0 1 0 0 1 0 0 1 0 0 1 0 0 1 0 0 1 0 0 1 0 0 1 0 0 1 0.1142886 -0.9934476 0 0.1142886 -0.9934476 0 0.1142886 -0.9934477 0 0.3403572 -0.9402962 0 0.3403574 -0.9402962 0 0.3403574 -0.9402961 0 0.5569193 -0.8305667 0 0.7514219 -0.6598221 0 0.7514216 -0.6598224 0 0.7514217 -0.6598224 0 0.9036248 -0.428325 0 0.903625 -0.4283246 0 0.9036251 -0.4283246 0 0.9888409 -0.1489757 0 0.9888409 -0.1489757 0 0.9888409 -0.1489757 0 -0.9998902 0.014822 -2.06768e-5 5.49125e-7 0 -1 0 0 -1 1.42578e-7 0 -1 0 0 -1 0 0 1 0.1142886 -0.9934477 0 0.3403572 -0.9402962 0 0.751422 -0.6598221 0 0.9036247 -0.4283251 0 0.9888409 -0.1489757 0</float_array>
          <technique_common>
            <accessor source="#Mesh_009-mesh-normals-array" count="67" stride="3">
              <param name="X" type="float"/>
              <param name="Y" type="float"/>
              <param name="Z" type="float"/>
            </accessor>
          </technique_common>
        </source>
        <source id="Mesh_009-mesh-map-0">
          <float_array id="Mesh_009-mesh-map-0-array" count="720">0.2383201 0.5216752 0.1986002 0.5027335 0.2383201 0.5027335 0.1191602 0.5027336 0.1588801 0.6919795 0.1191602 0.6919795 0.03972011 0.9618782 0.07944005 0.6079658 0.07944005 0.9618782 1 0 0.9602801 0.5027335 0.9602801 0 0.2383201 0.5657532 0.1986002 0.5216752 0.2383201 0.5216752 0.2383201 0.6068274 0.1986002 0.5657532 0.2383201 0.5657532 0.2383201 0.6420986 0.1986002 0.6068274 0.2383201 0.6068274 0.07944005 0.5335552 0.03972017 0.5027335 0.07944005 0.5027335 0.07944005 0.5694482 0.03972017 0.5335552 0.07944005 0.5335552 0.07944005 0.6079658 0.03972017 0.5694482 0.07944005 0.5694482 0 0 0.1892459 0 0.1892459 0.3539124 0.8025692 0.4365823 0.7777945 0.4083682 0.7569839 0.340116 0.1892459 0.3539124 0.202081 0.01283496 0.202081 0.3529509 0.3784919 0 0.202081 0.01283496 0.1892459 0 0.3784919 0 0.365657 0.4898985 0.365657 0.01283496 0.3595503 0.5027335 0.365657 0.4898985 0.3784919 0.5027335 0.3595503 0.5027335 0.3184299 0.4850832 0.3602862 0.4898985 0.3154723 0.4976626 0.2802425 0.4712606 0.3184299 0.4850832 0.2743982 0.4827951 0.2476662 0.4494172 0.2802425 0.4712606 0.2391269 0.4591447 0.2228915 0.4212031 0.2476662 0.4494172 0.2120624 0.428323 0.2074584 0.3886445 0.2228915 0.4212031 0.1892459 0.3539124 0.2074584 0.3886445 0.1950489 0.3924301 0.2704812 0.5027336 0.2812013 0.8428496 0.2704812 0.8428496 0.3946785 0.5027335 0.4053987 0.6663095 0.3946785 0.6663095 0.2490406 0.5027336 0.2597607 0.9797971 0.2490406 0.9797971 0.416119 0.6153535 0.4268392 0.6207242 0.416119 0.6207242 0.416119 0.5734972 0.4268392 0.6153535 0.416119 0.6153535 0.416119 0.5353098 0.4268392 0.5734972 0.416119 0.5734972 0.416119 0.5027335 0.4268392 0.5353098 0.416119 0.5353098 0.2704812 0.9111018 0.2812013 0.9393159 0.2704812 0.9393159 0.2704812 0.8785431 0.2812013 0.9111018 0.2704812 0.9111018 0.2704812 0.8428496 0.2812013 0.8785431 0.2704812 0.8785431 0.4721581 0.5027335 0.4630943 0.5170475 0.4630943 0.5027335 0.4721581 0.5170475 0.4812219 0.5027335 0.4812219 0.5170475 0.2812014 0.5123391 0.2955153 0.5891452 0.2812014 0.5891452 0.4268392 0.5123391 0.435903 0.5891452 0.4268392 0.5891452 0.3068906 0.5123391 0.3212045 0.5891452 0.3068906 0.5891452 0.4449668 0.5027336 0.4540305 0.5795397 0.4449668 0.5795397 0.435903 0.5891452 0.4268392 0.5987508 0.4268392 0.5891452 0.517477 0.5123391 0.5265408 0.5027335 0.5265408 0.5123391 0.3212045 0.5891452 0.3068906 0.5987508 0.3068906 0.5891452 0.2812014 0.5123391 0.2955153 0.5027335 0.2955153 0.5123391 0.435903 0.5027336 0.4268392 0.5123391 0.4268392 0.5027336 0.3212045 0.5027336 0.3068906 0.5123391 0.3068906 0.5027336 0.517477 0.5315503 0.5265408 0.5219448 0.5265408 0.5315503 0.2812014 0.5987507 0.2955153 0.5891452 0.2955153 0.5987507 0.4721581 0.5170475 0.4630943 0.5284227 0.4630943 0.5170475 0.3212045 0.5891452 0.3325797 0.5987508 0.3212045 0.5987508 0.5084132 0.5027335 0.4993494 0.5141088 0.4993494 0.5027335 0.2955153 0.5027335 0.3068906 0.5123391 0.2955153 0.5123391 0.517477 0.5027335 0.5084132 0.5141088 0.5084132 0.5027335 0.3212045 0.5027336 0.3325797 0.5123391 0.3212045 0.5123391 0.4812219 0.5170475 0.4721581 0.5284227 0.4721581 0.5170475 0.2955153 0.5891452 0.3068906 0.5987507 0.2955153 0.5987507 0.2383201 0.5216752 0.1986002 0.5216752 0.1986002 0.5027335 0.1191602 0.5027336 0.1588801 0.5027336 0.1588801 0.6919795 0.03972011 0.9618782 0.03972017 0.6079658 0.07944005 0.6079658 1 0 1 0.5027335 0.9602801 0.5027335 0.2383201 0.5657532 0.1986002 0.5657532 0.1986002 0.5216752 0.2383201 0.6068274 0.1986002 0.6068274 0.1986002 0.5657532 0.2383201 0.6420986 0.1986002 0.6420986 0.1986002 0.6068274 0.07944005 0.5335552 0.03972017 0.5335552 0.03972017 0.5027335 0.07944005 0.5694482 0.03972017 0.5694482 0.03972017 0.5335552 0.07944005 0.6079658 0.03972017 0.6079658 0.03972017 0.5694482 0.1892459 0.3539124 0.183443 0.3924301 0.1664295 0.428323 0.1664295 0.428323 0.139365 0.4591447 0.1892459 0.3539124 0.139365 0.4591447 0.1040938 0.4827951 0.1892459 0.3539124 0.1040938 0.4827951 0.06301963 0.4976626 0.1892459 0.3539124 0.06301963 0.4976626 0.01894164 0.5027335 0.1892459 0.3539124 0.01894164 0.5027335 0 0.5027335 0.1892459 0.3539124 0 0.5027335 0 0 0.1892459 0.3539124 0.7623614 0.3758096 0.7569839 0.340116 0.7777945 0.4083682 0.7569839 0.340116 0.7569839 0 0.92056 0 0.92056 0 0.92056 0.4770635 0.7569839 0.340116 0.7569839 0.340116 0.92056 0.4770635 0.9151892 0.4770635 0.9151892 0.4770635 0.8733329 0.4722483 0.7569839 0.340116 0.8733329 0.4722483 0.8351455 0.4584257 0.7569839 0.340116 0.8351455 0.4584257 0.8025692 0.4365823 0.7569839 0.340116 0.1892459 0.3539124 0.1892459 0 0.202081 0.01283496 0.3784919 0 0.365657 0.01283496 0.202081 0.01283496 0.3784919 0 0.3784919 0.5027335 0.365657 0.4898985 0.3595503 0.5027335 0.3602862 0.4898985 0.365657 0.4898985 0.3595503 0.5027335 0.3154723 0.4976626 0.3184299 0.4850832 0.3154723 0.4976626 0.2743982 0.4827951 0.2802425 0.4712606 0.2743982 0.4827951 0.2391269 0.4591447 0.2476662 0.4494172 0.2391269 0.4591447 0.2120624 0.428323 0.2228915 0.4212031 0.2120624 0.428323 0.1950489 0.3924301 0.2074584 0.3886445 0.1892459 0.3539124 0.202081 0.3529509 0.2074584 0.3886445 0.2704812 0.5027336 0.2812014 0.5027336 0.2812013 0.8428496 0.3946785 0.5027335 0.4053987 0.5027335 0.4053987 0.6663095 0.2490406 0.5027336 0.2597607 0.5027336 0.2597607 0.9797971 0.416119 0.6153535 0.4268392 0.6153535 0.4268392 0.6207242 0.416119 0.5734972 0.4268392 0.5734972 0.4268392 0.6153535 0.416119 0.5353098 0.4268392 0.5353098 0.4268392 0.5734972 0.416119 0.5027335 0.4268392 0.5027335 0.4268392 0.5353098 0.2704812 0.9111018 0.2812013 0.9111018 0.2812013 0.9393159 0.2704812 0.8785431 0.2812013 0.8785431 0.2812013 0.9111018 0.2704812 0.8428496 0.2812013 0.8428496 0.2812013 0.8785431 0.4721581 0.5027335 0.4721581 0.5170475 0.4630943 0.5170475 0.4721581 0.5170475 0.4721581 0.5027335 0.4812219 0.5027335 0.2812014 0.5123391 0.2955153 0.5123391 0.2955153 0.5891452 0.4268392 0.5123391 0.435903 0.5123391 0.435903 0.5891452 0.3068906 0.5123391 0.3212045 0.5123391 0.3212045 0.5891452 0.4449668 0.5027336 0.4540305 0.5027336 0.4540305 0.5795397 0.435903 0.5891452 0.435903 0.5987508 0.4268392 0.5987508 0.517477 0.5123391 0.517477 0.5027335 0.5265408 0.5027335 0.3212045 0.5891452 0.3212045 0.5987508 0.3068906 0.5987508 0.2812014 0.5123391 0.2812014 0.5027335 0.2955153 0.5027335 0.435903 0.5027336 0.435903 0.5123391 0.4268392 0.5123391 0.3212045 0.5027336 0.3212045 0.5123391 0.3068906 0.5123391 0.517477 0.5315503 0.517477 0.5219448 0.5265408 0.5219448 0.2812014 0.5987507 0.2812014 0.5891452 0.2955153 0.5891452 0.4721581 0.5170475 0.4721581 0.5284227 0.4630943 0.5284227 0.3212045 0.5891452 0.3325797 0.5891452 0.3325797 0.5987508 0.5084132 0.5027335 0.5084132 0.5141088 0.4993494 0.5141088 0.2955153 0.5027335 0.3068906 0.5027335 0.3068906 0.5123391 0.517477 0.5027335 0.517477 0.5141088 0.5084132 0.5141088 0.3212045 0.5027336 0.3325797 0.5027336 0.3325797 0.5123391 0.4812219 0.5170475 0.4812219 0.5284227 0.4721581 0.5284227 0.2955153 0.5891452 0.3068906 0.5891452 0.3068906 0.5987507</float_array>
          <technique_common>
            <accessor source="#Mesh_009-mesh-map-0-array" count="360" stride="2">
              <param name="S" type="float"/>
              <param name="T" type="float"/>
            </accessor>
          </technique_common>
        </source>
        <source id="Mesh_009-mesh-colors-Attribute" name="Attribute">
          <float_array id="Mesh_009-mesh-colors-Attribute-array" count="1440">1 1 1 1 1 1 1 1 1 1 1 1 1 1 1 1 1 1 1 1 1 1 1 1 1 1 1 1 1 1 1 1 1 1 1 1 1 1 1 1 1 1 1 1 1 1 1 1 1 1 1 1 1 1 1 1 1 1 1 1 1 1 1 1 1 1 1 1 1 1 1 1 1 1 1 1 1 1 1 1 1 1 1 1 1 1 1 1 1 1 1 1 1 1 1 1 1 1 1 1 1 1 1 1 1 1 1 1 1 1 1 1 1 1 1 1 1 1 1 1 1 1 1 1 1 1 1 1 1 1 1 1 1 1 1 1 1 1 1 1 1 1 1 1 1 1 1 1 1 1 1 1 1 1 1 1 1 1 1 1 1 1 1 1 1 1 1 1 1 1 1 1 1 1 1 1 1 1 1 1 1 1 1 1 1 1 1 1 1 1 1 1 1 1 1 1 1 1 1 1 1 1 1 1 1 1 1 1 1 1 1 1 1 1 1 1 1 1 1 1 1 1 1 1 1 1 1 1 1 1 1 1 1 1 1 1 1 1 1 1 1 1 1 1 1 1 1 1 1 1 1 1 1 1 1 1 1 1 1 1 1 1 1 1 1 1 1 1 1 1 1 1 1 1 1 1 1 1 1 1 1 1 1 1 1 1 1 1 1 1 1 1 1 1 1 1 1 1 1 1 1 1 1 1 1 1 1 1 1 1 1 1 1 1 1 1 1 1 1 1 1 1 1 1 1 1 1 1 1 1 1 1 1 1 1 1 1 1 1 1 1 1 1 1 1 1 1 1 1 1 1 1 1 1 1 1 1 1 1 1 1 1 1 1 1 1 1 1 1 1 1 1 1 1 1 1 1 1 1 1 1 1 1 1 1 1 1 1 1 1 1 1 1 1 1 1 1 1 1 1 1 1 1 1 1 1 1 1 1 1 1 1 1 1 1 1 1 1 1 1 1 1 1 1 1 1 1 1 1 1 1 1 1 1 1 1 1 1 1 1 1 1 1 1 1 1 1 1 1 1 1 1 1 1 1 1 1 1 1 1 1 1 1 1 1 1 1 1 1 1 1 1 1 1 1 1 1 1 1 1 1 1 1 1 1 1 1 1 1 1 1 1 1 1 1 1 1 1 1 1 1 1 1 1 1 1 1 1 1 1 1 1 1 1 1 1 1 1 1 1 1 1 1 1 1 1 1 1 1 1 1 1 1 1 1 1 1 1 1 1 1 1 1 1 1 1 1 1 1 1 1 1 1 1 1 1 1 1 1 1 1 1 1 1 1 1 1 1 1 1 1 1 1 1 1 1 1 1 1 1 1 1 1 1 1 1 1 1 1 1 1 1 1 1 1 1 1 1 1 1 1 1 1 1 1 1 1 1 1 1 1 1 1 1 1 1 1 1 1 1 1 1 1 1 1 1 1 1 1 1 1 1 1 1 1 1 1 1 1 1 1 1 1 1 1 1 1 1 1 1 1 1 1 1 1 1 1 1 1 1 1 1 1 1 1 1 1 1 1 1 1 1 1 1 1 1 1 1 1 1 1 1 1 1 1 1 1 1 1 1 1 1 1 1 1 1 1 1 1 1 1 1 1 1 1 1 1 1 1 1 1 1 1 1 1 1 1 1 1 1 1 1 1 1 1 1 1 1 1 1 1 1 1 1 1 1 1 1 1 1 1 1 1 1 1 1 1 1 1 1 1 1 1 1 1 1 1 1 1 1 1 1 1 1 1 1 1 1 1 1 1 1 1 1 1 1 1 1 1 1 1 1 1 1 1 1 1 1 1 1 1 1 1 1 1 1 1 1 1 1 1 1 1 1 1 1 1 1 1 1 1 1 1 1 1 1 1 1 1 1 1 1 1 1 1 1 1 1 1 1 1 1 1 1 1 1 1 1 1 1 1 1 1 1 1 1 1 1 1 1 1 1 1 1 1 1 1 1 1 1 1 1 1 1 1 1 1 1 1 1 1 1 1 1 1 1 1 1 1 1 1 1 1 1 1 1 1 1 1 1 1 1 1 1 1 1 1 1 1 1 1 1 1 1 1 1 1 1 1 1 1 1 1 1 1 1 1 1 1 1 1 1 1 1 1 1 1 1 1 1 1 1 1 1 1 1 1 1 1 1 1 1 1 1 1 1 1 1 1 1 1 1 1 1 1 1 1 1 1 1 1 1 1 1 1 1 1 1 1 1 1 1 1 1 1 1 1 1 1 1 1 1 1 1 1 1 1 1 1 1 1 1 1 1 1 1 1 1 1 1 1 1 1 1 1 1 1 1 1 1 1 1 1 1 1 1 1 1 1 1 1 1 1 1 1 1 1 1 1 1 1 1 1 1 1 1 1 1 1 1 1 1 1 1 1 1 1 1 1 1 1 1 1 1 1 1 1 1 1 1 1 1 1 1 1 1 1 1 1 1 1 1 1 1 1 1 1 1 1 1 1 1 1 1 1 1 1 1 1 1 1 1 1 1 1 1 1 1 1 1 1 1 1 1 1 1 1 1 1 1 1 1 1 1 1 1 1 1 1 1 1 1 1 1 1 1 1 1 1 1 1 1 1 1 1 1 1 1 1 1 1 1 1 1 1 1 1 1 1 1 1 1 1 1 1 1 1 1 1 1 1 1 1 1 1 1 1 1 1 1 1 1 1 1 1 1 1 1 1 1 1 1 1 1 1 1 1 1 1 1 1 1 1 1 1 1 1 1 1 1 1 1 1 1 1 1 1 1 1 1 1 1 1 1 1 1 1 1 1 1 1 1 1 1 1 1 1 1 1 1 1 1 1 1 1 1 1 1 1 1 1 1 1 1 1 1 1 1 1 1 1 1 1 1 1 1 1 1 1 1 1 1 1 1 1 1 1 1 1 1 1 1 1 1 1 1 1 1 1 1 1 1 1 1 1 1 1 1 1 1 1 1 1 1 1 1 1 1 1 1 1 1 1 1 1 1 1 1 1 1 1 1 1 1 1 1 1 1 1 1 1 1 1 1 1 1 1 1 1 1 1 1 1 1 1 1 1 1 1 1 1 1 1 1 1 1 1 1 1 1 1 1 1 1 1 1 1 1 1 1 1 1 1 1 1 1 1 1 1 1 1 1 1 1 1 1 1 1 1 1 1 1 1 1 1 1 1 1 1 1 1 1 1 1 1 1 1 1 1 1 1 1 1 1 1 1 1 1 1 1 1 1 1 1 1 1 1 1 1 1 1 1 1 1 1 1 1 1 1 1 1 1 1 1 1 1 1 1 1 1</float_array>
          <technique_common>
            <accessor source="#Mesh_009-mesh-colors-Attribute-array" count="360" stride="4">
              <param name="R" type="float"/>
              <param name="G" type="float"/>
              <param name="B" type="float"/>
              <param name="A" type="float"/>
            </accessor>
          </technique_common>
        </source>
        <vertices id="Mesh_009-mesh-vertices">
          <input semantic="POSITION" source="#Mesh_009-mesh-positions"/>
        </vertices>
        <triangles material="Madeira_Clara_003-material" count="112">
          <input semantic="VERTEX" source="#Mesh_009-mesh-vertices" offset="0"/>
          <input semantic="NORMAL" source="#Mesh_009-mesh-normals" offset="1"/>
          <input semantic="TEXCOORD" source="#Mesh_009-mesh-map-0" offset="2" set="0"/>
          <input semantic="COLOR" source="#Mesh_009-mesh-colors-Attribute" offset="3" set="0"/>
          <p>11 0 0 0 3 1 1 1 2 1 2 2 5 2 3 3 0 2 4 4 4 2 5 5 5 3 6 6 12 4 7 7 1 3 8 8 0 5 9 9 3 5 10 10 4 5 11 11 10 6 12 12 14 7 13 13 11 0 14 14 9 8 15 15 15 9 16 16 10 6 17 17 8 10 18 18 16 11 19 19 9 8 20 20 7 12 21 21 17 13 22 22 8 10 23 23 6 14 24 24 18 15 25 25 7 12 26 26 12 4 27 27 19 16 28 28 6 14 29 29 0 17 30 30 1 17 31 31 12 18 32 32 13 22 36 36 21 23 37 37 20 24 38 38 4 25 39 39 21 23 40 40 5 26 41 41 4 25 42 42 23 27 43 43 22 24 44 44 14 28 45 45 23 27 46 46 3 29 47 47 14 28 48 48 25 30 49 49 24 31 50 50 15 32 51 51 26 24 52 52 25 30 53 53 16 33 54 54 27 34 55 55 26 24 56 56 17 35 57 57 28 36 58 58 27 34 59 59 18 37 60 60 29 38 61 61 28 36 62 62 13 22 63 63 29 38 64 64 19 39 65 65 21 5 66 66 30 5 67 67 20 5 68 68 22 1 69 69 31 1 70 70 21 1 71 71 23 3 72 72 32 3 73 73 22 3 74 74 24 2 75 75 33 2 76 76 23 2 77 77 25 40 78 78 34 41 79 79 24 42 80 80 26 43 81 81 35 44 82 82 25 45 83 83 27 46 84 84 36 46 85 85 26 46 86 86 28 47 87 87 37 48 88 88 27 49 89 89 29 50 90 90 38 51 91 91 28 52 92 92 20 53 93 93 39 54 94 94 29 55 95 95 43 1 96 96 44 1 97 97 42 1 98 98 47 2 99 99 40 2 100 100 46 2 101 101 49 3 102 102 55 3 103 103 48 3 104 104 48 24 105 105 50 24 106 106 49 24 107 107 51 5 108 108 52 5 109 109 50 5 110 110 53 17 111 111 54 17 112 112 52 17 113 113 50 24 114 114 42 24 115 115 49 24 116 116 57 17 117 117 59 17 118 118 56 17 119 119 52 5 120 120 43 5 121 121 50 5 122 122 49 3 123 123 44 3 124 124 54 3 125 125 41 24 126 126 48 24 127 127 40 24 128 128 47 5 129 129 51 5 130 130 41 5 131 131 60 17 132 132 63 17 133 133 61 17 134 134 40 3 135 135 55 3 136 136 46 3 137 137 45 1 138 138 56 1 139 139 44 1 140 140 52 5 141 141 57 5 142 142 45 5 143 143 54 2 144 144 58 2 145 145 52 2 146 146 44 3 147 147 59 3 148 148 54 3 149 149 53 1 150 150 61 1 151 151 55 1 152 152 47 5 153 153 60 5 154 154 53 5 155 155 46 2 156 156 62 2 157 157 47 2 158 158 55 3 159 159 63 3 160 160 46 3 161 161 11 0 162 162 14 7 163 163 3 1 164 164 5 2 165 165 1 2 166 166 0 2 167 167 5 3 168 168 13 56 169 169 12 4 170 170 0 5 171 171 2 5 172 172 3 5 173 173 10 6 174 174 15 9 175 175 14 7 176 176 9 8 177 177 16 11 178 178 15 9 179 179 8 10 180 180 17 13 181 181 16 11 182 182 7 12 183 183 18 15 184 184 17 13 185 185 6 14 186 186 19 16 187 187 18 15 188 188 12 4 189 189 13 56 190 190 19 16 191 191 12 18 192 192 6 57 193 193 7 58 194 194 7 58 195 195 8 17 196 196 12 18 197 197 8 17 198 198 9 17 199 199 12 18 200 200 9 17 201 201 10 59 202 202 12 18 203 203 10 59 204 204 11 60 205 205 12 18 206 206 11 60 207 207 2 17 208 208 12 18 209 209 2 17 210 210 0 17 211 211 12 18 212 212 13 22 234 234 5 26 235 235 21 23 236 236 4 25 237 237 22 24 238 238 21 23 239 239 4 25 240 240 3 29 241 241 23 27 242 242 14 28 243 243 24 31 244 244 23 27 245 245 14 28 246 246 15 32 247 247 25 30 248 248 15 32 249 249 16 33 250 250 26 24 251 251 16 33 252 252 17 35 253 253 27 34 254 254 17 35 255 255 18 37 256 256 28 36 257 257 18 37 258 258 19 39 259 259 29 38 260 260 13 22 261 261 20 24 262 262 29 38 263 263 21 5 264 264 31 5 265 265 30 5 266 266 22 1 267 267 32 1 268 268 31 1 269 269 23 3 270 270 33 3 271 271 32 3 272 272 24 2 273 273 34 2 274 274 33 2 275 275 25 40 276 276 35 62 277 277 34 41 278 278 26 43 279 279 36 63 280 280 35 44 281 281 27 46 282 282 37 46 283 283 36 46 284 284 28 47 285 285 38 64 286 286 37 48 287 287 29 50 288 288 39 65 289 289 38 51 290 290 20 53 291 291 30 66 292 292 39 54 293 293 43 1 294 294 45 1 295 295 44 1 296 296 47 2 297 297 41 2 298 298 40 2 299 299 49 3 300 300 54 3 301 301 55 3 302 302 48 24 303 303 51 24 304 304 50 24 305 305 51 5 306 306 53 5 307 307 52 5 308 308 53 17 309 309 55 17 310 310 54 17 311 311 50 24 312 312 43 24 313 313 42 24 314 314 57 17 315 315 58 17 316 316 59 17 317 317 52 5 318 318 45 5 319 319 43 5 320 320 49 3 321 321 42 3 322 322 44 3 323 323 41 24 324 324 51 24 325 325 48 24 326 326 47 5 327 327 53 5 328 328 51 5 329 329 60 17 330 330 62 17 331 331 63 17 332 332 40 3 333 333 48 3 334 334 55 3 335 335 45 1 336 336 57 1 337 337 56 1 338 338 52 5 339 339 58 5 340 340 57 5 341 341 54 2 342 342 59 2 343 343 58 2 344 344 44 3 345 345 56 3 346 346 59 3 347 347 53 1 348 348 60 1 349 349 61 1 350 350 47 5 351 351 62 5 352 352 60 5 353 353 46 2 354 354 63 2 355 355 62 2 356 356 55 3 357 357 61 3 358 358 63 3 359 359</p>
        </triangles>
        <triangles material="Vidro_Azul_006-material" count="8">
          <input semantic="VERTEX" source="#Mesh_009-mesh-vertices" offset="0"/>
          <input semantic="NORMAL" source="#Mesh_009-mesh-normals" offset="1"/>
          <input semantic="TEXCOORD" source="#Mesh_009-mesh-map-0" offset="2" set="0"/>
          <input semantic="COLOR" source="#Mesh_009-mesh-colors-Attribute" offset="3" set="0"/>
          <p>37 19 33 33 38 20 34 34 30 21 35 35 39 61 213 213 30 21 214 214 38 20 215 215 30 21 216 216 31 24 217 217 32 24 218 218 32 24 219 219 33 24 220 220 30 21 221 221 30 21 222 222 33 24 223 223 34 24 224 224 34 24 225 225 35 24 226 226 30 21 227 227 35 24 228 228 36 24 229 229 30 21 230 230 36 24 231 231 37 19 232 232 30 21 233 233</p>
        </triangles>
      </mesh>
    </geometry>
  </library_geometries>
  <library_controllers>
    <controller id="Armature_001_Door_002-skin" name="Armature.001">
      <skin source="#Mesh_010-mesh">
        <bind_shape_matrix>-1.507 9.44853e-14 -8.5034e-7 -2.84217e-14 -8.5034e-7 -1.13775e-7 1.507 -5.68434e-14 3.02865e-14 1.507 1.13775e-7 0 0 0 0 1</bind_shape_matrix>
        <source id="Armature_001_Door_002-skin-joints">
          <Name_array id="Armature_001_Door_002-skin-joints-array" count="2">Bone Bone_001</Name_array>
          <technique_common>
            <accessor source="#Armature_001_Door_002-skin-joints-array" count="2" stride="1">
              <param name="JOINT" type="name"/>
            </accessor>
          </technique_common>
        </source>
        <source id="Armature_001_Door_002-skin-bind_poses">
          <float_array id="Armature_001_Door_002-skin-bind_poses-array" count="32">1 0 0 2.248445 0 0 1 -4.157394 0 -1 0 0.09022474 0 0 0 1 1 0 0 -2.251555 0 0 1 -4.157394 0 -1 0 0.09022474 0 0 0 1</float_array>
          <technique_common>
            <accessor source="#Armature_001_Door_002-skin-bind_poses-array" count="2" stride="16">
              <param name="TRANSFORM" type="float4x4"/>
            </accessor>
          </technique_common>
        </source>
        <source id="Armature_001_Door_002-skin-weights">
          <float_array id="Armature_001_Door_002-skin-weights-array" count="101">0.9999511 4.88496e-5 0.9998513 1.4865e-4 0.9979965 0.00200349 0.9996603 3.39764e-4 0.9999601 3.98966e-5 0.9998429 1.57062e-4 1 1 1 1 1 0.9994645 5.35605e-4 1 1 0.9999809 1.91335e-5 1 1 1 1 1 1 1 1 1 0.9999995 5.11987e-7 0.9994027 5.97352e-4 0.9989027 0.001097142 0.9999929 7.17347e-6 0.9999654 3.45843e-5 1 1 1 1 1 0.9999991 9.93565e-7 0.9994369 5.63086e-4 0.9990997 9.00321e-4 0.9999955 4.49157e-6 0.9999722 2.78465e-5 1 0.9999988 1.22763e-6 0.9999975 2.50357e-6 1 1 0.9999939 6.07799e-6 0.9999964 3.56921e-6 1 0.9999998 2.69388e-7 0.9999974 2.58384e-6 1 1 0.9999964 3.61154e-6 0.9999967 3.33526e-6 0.9999994 5.46138e-7 0.9999963 3.68573e-6 0.9999998 2.24354e-7 0.999969 3.10299e-5 0.99998 2.00432e-5 0.9999859 1.41202e-5 0.9999802 1.973e-5 0.9999998 2.02013e-7 0.9999998 2.42617e-7 1 0 0.9999999 0</float_array>
          <technique_common>
            <accessor source="#Armature_001_Door_002-skin-weights-array" count="101" stride="1">
              <param name="WEIGHT" type="float"/>
            </accessor>
          </technique_common>
        </source>
        <joints>
          <input semantic="JOINT" source="#Armature_001_Door_002-skin-joints"/>
          <input semantic="INV_BIND_MATRIX" source="#Armature_001_Door_002-skin-bind_poses"/>
        </joints>
        <vertex_weights count="64">
          <input semantic="JOINT" source="#Armature_001_Door_002-skin-joints" offset="0"/>
          <input semantic="WEIGHT" source="#Armature_001_Door_002-skin-weights" offset="1"/>
          <vcount>2 2 2 2 2 2 1 1 1 1 1 2 1 1 2 1 1 1 1 1 1 1 1 1 2 2 2 2 2 1 1 1 1 1 2 2 2 2 2 1 2 2 1 1 2 2 1 2 2 1 1 2 2 2 2 2 2 2 2 2 2 2 2 2 </vcount>
          <v>0 0 1 1 0 2 1 3 0 4 1 5 0 6 1 7 0 8 1 9 0 10 1 11 0 12 0 13 0 14 0 15 0 16 0 17 1 18 0 19 0 20 0 21 1 22 0 23 0 24 0 25 0 26 0 27 0 28 0 29 0 30 0 31 0 32 1 33 0 34 1 35 0 36 1 37 0 38 1 39 0 40 1 41 0 42 0 43 0 44 0 45 0 46 0 47 1 48 0 49 1 50 0 51 1 52 0 53 1 54 0 55 1 56 0 57 0 58 1 59 0 60 1 61 0 62 0 63 0 64 1 65 0 66 1 67 0 68 0 69 1 70 0 71 1 72 0 73 0 74 0 75 1 76 0 77 1 78 0 79 1 80 0 81 1 82 0 83 1 84 0 85 1 86 0 87 1 88 0 89 1 90 0 91 1 92 0 93 1 94 0 95 1 96 0 97 1 98 0 99 1 100</v>
        </vertex_weights>
      </skin>
    </controller>
    <controller id="Armature_001_Door_001-skin" name="Armature.001">
      <skin source="#Mesh_009-mesh">
        <bind_shape_matrix>-1.507 9.44853e-14 -8.5034e-7 -2.84217e-14 -8.5034e-7 -1.13775e-7 1.507 -5.68434e-14 3.02865e-14 1.507 1.13775e-7 0 0 0 0 1</bind_shape_matrix>
        <source id="Armature_001_Door_001-skin-joints">
          <Name_array id="Armature_001_Door_001-skin-joints-array" count="2">Bone Bone_001</Name_array>
          <technique_common>
            <accessor source="#Armature_001_Door_001-skin-joints-array" count="2" stride="1">
              <param name="JOINT" type="name"/>
            </accessor>
          </technique_common>
        </source>
        <source id="Armature_001_Door_001-skin-bind_poses">
          <float_array id="Armature_001_Door_001-skin-bind_poses-array" count="32">1 0 0 2.248445 0 0 1 -4.157394 0 -1 0 0.09022474 0 0 0 1 1 0 0 -2.251555 0 0 1 -4.157394 0 -1 0 0.09022474 0 0 0 1</float_array>
          <technique_common>
            <accessor source="#Armature_001_Door_001-skin-bind_poses-array" count="2" stride="16">
              <param name="TRANSFORM" type="float4x4"/>
            </accessor>
          </technique_common>
        </source>
        <source id="Armature_001_Door_001-skin-weights">
          <float_array id="Armature_001_Door_001-skin-weights-array" count="108">1.27042e-4 0.999873 1 1.30227e-6 0.9999987 5.56255e-7 0.9999995 9.37026e-5 0.9999063 1 1 1 0 1 0 1 1 0 1 1 1 0 1 0 1 0 1 1 1 1 1 1 2.10432e-5 0.999979 0 1 0 1 0 1 1 0 1 1 1 1 1 2.09471e-5 0.9999791 0 1 0 1 0 1 0 1 0 1 1 1 3.6477e-5 0.9999635 9.87827e-5 0.9999012 4.04361e-6 0.999996 1.13597e-5 0.9999887 1.19887e-7 0.9999999 1.30656e-6 0.9999987 9.92283e-6 0.9999901 3.82837e-5 0.9999617 2.18701e-5 0.9999782 7.24128e-6 0.9999927 1.80515e-5 0.999982 6.45525e-5 0.9999354 2.88959e-6 0.9999971 2.19136e-5 0.9999781 5.15914e-7 0.9999995 4.70783e-6 0.9999954 1 4.50006e-7 0.9999995 1.28077e-6 0.9999987 0 0.9999999 1.43661e-5 0.9999856 2.47683e-6 0.9999975 2.65708e-5 0.9999734 5.83228e-6 0.9999942</float_array>
          <technique_common>
            <accessor source="#Armature_001_Door_001-skin-weights-array" count="108" stride="1">
              <param name="WEIGHT" type="float"/>
            </accessor>
          </technique_common>
        </source>
        <joints>
          <input semantic="JOINT" source="#Armature_001_Door_001-skin-joints"/>
          <input semantic="INV_BIND_MATRIX" source="#Armature_001_Door_001-skin-bind_poses"/>
        </joints>
        <vertex_weights count="64">
          <input semantic="JOINT" source="#Armature_001_Door_001-skin-joints" offset="0"/>
          <input semantic="WEIGHT" source="#Armature_001_Door_001-skin-weights" offset="1"/>
          <vcount>2 1 2 2 2 1 1 1 2 2 1 2 1 1 2 2 2 1 1 1 1 1 2 2 2 2 1 2 1 1 1 1 2 2 2 2 2 2 1 1 2 2 2 2 2 2 2 2 2 2 2 2 2 2 2 2 1 2 2 2 2 2 2 2 </vcount>
          <v>0 0 1 1 1 2 0 3 1 4 0 5 1 6 0 7 1 8 1 9 1 10 1 11 0 12 1 13 0 14 1 15 1 16 0 17 1 18 1 19 1 20 0 21 1 22 0 23 1 24 0 25 1 26 1 27 1 28 1 29 1 30 1 31 0 32 1 33 0 34 1 35 0 36 1 37 0 38 1 39 1 40 0 41 1 42 1 43 1 44 1 45 1 46 0 47 1 48 0 49 1 50 0 51 1 52 0 53 1 54 0 55 1 56 0 57 1 58 1 59 1 60 0 61 1 62 0 63 1 64 0 65 1 66 0 67 1 68 0 69 1 70 0 71 1 72 0 73 1 74 0 75 1 76 0 77 1 78 0 79 1 80 0 81 1 82 0 83 1 84 0 85 1 86 0 87 1 88 0 89 1 90 0 91 1 92 1 93 0 94 1 95 0 96 1 97 0 98 1 99 0 100 1 101 0 102 1 103 0 104 1 105 0 106 1 107</v>
        </vertex_weights>
      </skin>
    </controller>
  </library_controllers>
  <library_animations>
    <animation id="action_container-Armature_001" name="Armature.001">
      <animation id="Armature_001_close_Bone_pose_matrix" name="Armature.001">
        <source id="Armature_001_close_Bone_pose_matrix-input">
          <float_array id="Armature_001_close_Bone_pose_matrix-input-array" count="20">0.04166662 0.08333331 0.125 0.1666666 0.2083333 0.25 0.2916666 0.3333333 0.375 0.4166666 0.4583333 0.5 0.5416667 0.5833333 0.625 0.6666667 0.7083333 0.75 0.7916667 0.8333333</float_array>
          <technique_common>
            <accessor source="#Armature_001_close_Bone_pose_matrix-input-array" count="20" stride="1">
              <param name="TIME" type="float"/>
            </accessor>
          </technique_common>
        </source>
        <source id="Armature_001_close_Bone_pose_matrix-output">
          <float_array id="Armature_001_close_Bone_pose_matrix-output-array" count="320">0.01530249 4.37063e-8 0.9998828 -2.248445 0.9998828 -6.68893e-10 -0.01530249 0.09022476 0 1 -4.37114e-8 4.157394 0 0 0 1 0.046318 4.36645e-8 0.9989268 -2.248445 0.9989267 -2.02462e-9 -0.046318 0.09022476 0 1 -4.37114e-8 4.157394 0 0 0 1 0.09581478 4.35103e-8 0.9953991 -2.248445 0.9953991 -4.1882e-9 -0.09581479 0.09022476 0 1 -4.37114e-8 4.157394 0 0 0 1 0.161922 4.31346e-8 0.9868036 -2.248445 0.9868037 -7.07783e-9 -0.161922 0.09022476 0 1 -4.37114e-8 4.157394 0 0 0 1 0.2423008 4.24088e-8 0.9702012 -2.248445 0.9702012 -1.05913e-8 -0.2423008 0.09022476 0 0.9999999 -4.37114e-8 4.157394 0 0 0 1 0.3338366 4.12037e-8 0.9426309 -2.248445 0.9426309 -1.45925e-8 -0.3338366 0.09022476 0 1 -4.37114e-8 4.157394 0 0 0 1 0.432505 3.94116e-8 0.9016315 -2.248445 0.9016315 -1.89054e-8 -0.432505 0.09022476 0 0.9999999 -4.37114e-8 4.157394 0 0 0 1 0.5335004 3.69711e-8 0.8457998 -2.248445 0.8457998 -2.332e-8 -0.5335004 0.09022476 0 1 -4.37114e-8 4.157394 0 0 0 1 0.6316622 3.3887e-8 0.7752438 -2.248445 0.7752438 -2.76108e-8 -0.6316622 0.09022476 0 1 -4.37114e-8 4.157394 0 0 0 1 0.7221197 3.02381e-8 0.6917682 -2.248445 0.6917682 -3.15649e-8 -0.7221197 0.09022476 0 1 -4.37114e-8 4.157394 0 0 0 1 0.8009694 2.61702e-8 0.5987053 -2.248445 0.5987052 -3.50115e-8 -0.8009694 0.09022476 0 1 -4.37114e-8 4.157394 0 0 0 1 0.865776 2.18746e-8 0.5004317 -2.248445 0.5004317 -3.78443e-8 -0.865776 0.09022476 0 1 -4.37114e-8 4.157394 0 0 0 1 0.9157581 1.75602e-8 0.4017301 -2.248445 0.4017301 -4.00291e-8 -0.915758 0.09022476 0 1 -4.37114e-8 4.157394 0 0 0 1 0.9516486 1.34276e-8 0.3071885 -2.248445 0.3071885 -4.15979e-8 -0.9516487 0.09022476 0 1 -4.37114e-8 4.157394 0 0 0 1 0.9753233 9.65066e-9 0.2207814 -2.248445 0.2207814 -4.26327e-8 -0.9753233 0.09022476 0 1 -4.37114e-8 4.157394 0 0 0 1 0.9893305 6.36825e-9 0.1456885 -2.248445 0.1456885 -4.3245e-8 -0.9893305 0.09022476 0 1 -4.37114e-8 4.157394 0 0 0 1 0.9964378 3.68621e-9 0.0843306 -2.248445 0.0843306 -4.35557e-8 -0.9964378 0.09022476 0 1 -4.37114e-8 4.157394 0 0 0 1 0.9992563 1.68547e-9 0.03855903 -2.248445 0.03855903 -4.36789e-8 -0.9992563 0.09022476 0 1 -4.37114e-8 4.157394 0 0 0 1 0.9999507 4.34006e-10 0.009928909 -2.248445 0.009928909 -4.37092e-8 -0.9999507 0.09022476 0 1 -4.37114e-8 4.157394 0 0 0 1 1 0 0 -2.248445 0 -4.37114e-8 -1 0.09022476 0 1 -4.37114e-8 4.157394 0 0 0 1</float_array>
          <technique_common>
            <accessor source="#Armature_001_close_Bone_pose_matrix-output-array" count="20" stride="16">
              <param name="TRANSFORM" type="float4x4"/>
            </accessor>
          </technique_common>
        </source>
        <source id="Armature_001_close_Bone_pose_matrix-interpolation">
          <Name_array id="Armature_001_close_Bone_pose_matrix-interpolation-array" count="20">LINEAR LINEAR LINEAR LINEAR LINEAR LINEAR LINEAR LINEAR LINEAR LINEAR LINEAR LINEAR LINEAR LINEAR LINEAR LINEAR LINEAR LINEAR LINEAR LINEAR</Name_array>
          <technique_common>
            <accessor source="#Armature_001_close_Bone_pose_matrix-interpolation-array" count="20" stride="1">
              <param name="INTERPOLATION" type="name"/>
            </accessor>
          </technique_common>
        </source>
        <sampler id="Armature_001_close_Bone_pose_matrix-sampler">
          <input semantic="INPUT" source="#Armature_001_close_Bone_pose_matrix-input"/>
          <input semantic="OUTPUT" source="#Armature_001_close_Bone_pose_matrix-output"/>
          <input semantic="INTERPOLATION" source="#Armature_001_close_Bone_pose_matrix-interpolation"/>
        </sampler>
        <channel source="#Armature_001_close_Bone_pose_matrix-sampler" target="Armature_001_Bone/transform"/>
      </animation>
      <animation id="Armature_001_close_Bone_001_pose_matrix" name="Armature.001">
        <source id="Armature_001_close_Bone_001_pose_matrix-input">
          <float_array id="Armature_001_close_Bone_001_pose_matrix-input-array" count="20">0.04166662 0.08333331 0.125 0.1666666 0.2083333 0.25 0.2916666 0.3333333 0.375 0.4166666 0.4583333 0.5 0.5416667 0.5833333 0.625 0.6666667 0.7083333 0.75 0.7916667 0.8333333</float_array>
          <technique_common>
            <accessor source="#Armature_001_close_Bone_001_pose_matrix-input-array" count="20" stride="1">
              <param name="TIME" type="float"/>
            </accessor>
          </technique_common>
        </source>
        <source id="Armature_001_close_Bone_001_pose_matrix-output">
          <float_array id="Armature_001_close_Bone_001_pose_matrix-output-array" count="320">0.01479972 -4.37066e-8 -0.9998903 2.251555 -0.9998903 -6.46917e-10 -0.01479972 0.09022476 0 1 -4.37114e-8 4.157394 0 0 0 1 0.04484277 -4.36674e-8 -0.9989941 2.251555 -0.998994 -1.96014e-9 -0.04484277 0.09022476 0 1 -4.37114e-8 4.157394 0 0 0 1 0.09292238 -4.35223e-8 -0.9956732 2.251555 -0.9956733 -4.06177e-9 -0.09292238 0.09022476 0 1 -4.37114e-8 4.157394 0 0 0 1 0.1574106 -4.31665e-8 -0.9875333 2.251555 -0.9875332 -6.88064e-9 -0.1574106 0.09022476 0 1 -4.37114e-8 4.157394 0 0 0 1 0.2362667 -4.24738e-8 -0.9716882 2.251555 -0.9716882 -1.03275e-8 -0.2362667 0.09022476 0 0.9999999 -4.37114e-8 4.157394 0 0 0 1 0.3266895 -4.1313e-8 -0.9451317 2.251555 -0.9451317 -1.42801e-8 -0.3266895 0.09022476 0 1 -4.37114e-8 4.157394 0 0 0 1 0.4249083 -3.95691e-8 -0.9052364 2.251555 -0.9052364 -1.85733e-8 -0.4249083 0.09022476 0 0.9999999 -4.37114e-8 4.157394 0 0 0 1 0.5262253 -3.71698e-8 -0.8503451 2.251555 -0.8503451 -2.3002e-8 -0.5262254 0.09022476 0 1 -4.37114e-8 4.157394 0 0 0 1 0.6253905 -3.41085e-8 -0.7803119 2.251555 -0.7803119 -2.73367e-8 -0.6253905 0.09022476 0 1 -4.37114e-8 4.157394 0 0 0 1 0.7172692 -3.04579e-8 -0.6967961 2.251555 -0.696796 -3.13528e-8 -0.7172693 0.09022476 0 1 -4.37114e-8 4.157394 0 0 0 1 0.7976229 -2.63648e-8 -0.6031563 2.251555 -0.6031563 -3.48652e-8 -0.797623 0.09022476 0 1 -4.37114e-8 4.157394 0 0 0 1 0.8637332 -2.20283e-8 -0.5039493 2.251555 -0.5039494 -3.7755e-8 -0.8637331 0.09022476 0 1 -4.37114e-8 4.157394 0 0 0 1 0.9146687 -1.76683e-8 -0.4042041 2.251555 -0.404204 -3.99814e-8 -0.9146688 0.09022476 0 1 -4.37114e-8 4.157394 0 0 0 1 0.951152 -1.34947e-8 -0.3087226 2.251555 -0.3087226 -4.15762e-8 -0.9511521 0.09022476 0 1 -4.37114e-8 4.157394 0 0 0 1 0.9751369 -9.6866e-9 -0.2216035 2.251555 -0.2216035 -4.26246e-8 -0.9751369 0.09022476 0 1 -4.37114e-8 4.157394 0 0 0 1 0.9892766 -6.38423e-9 -0.1460541 2.251555 -0.1460541 -4.32427e-8 -0.9892766 0.09022476 0 1 -4.37114e-8 4.157394 0 0 0 1 0.9964274 -3.69161e-9 -0.08445429 2.251555 -0.0844543 -4.35552e-8 -0.9964273 0.09022476 0 1 -4.37114e-8 4.157394 0 0 0 1 0.9992553 -1.6866e-9 -0.03858498 2.251555 -0.03858498 -4.36788e-8 -0.9992553 0.09022476 0 1 -4.37114e-8 4.157394 0 0 0 1 0.9999507 -4.34082e-10 -0.009930631 2.251555 -0.009930631 -4.37092e-8 -0.9999507 0.09022476 0 1 -4.37114e-8 4.157394 0 0 0 1 1 0 0 2.251555 0 -4.37114e-8 -1 0.09022476 0 1 -4.37114e-8 4.157394 0 0 0 1</float_array>
          <technique_common>
            <accessor source="#Armature_001_close_Bone_001_pose_matrix-output-array" count="20" stride="16">
              <param name="TRANSFORM" type="float4x4"/>
            </accessor>
          </technique_common>
        </source>
        <source id="Armature_001_close_Bone_001_pose_matrix-interpolation">
          <Name_array id="Armature_001_close_Bone_001_pose_matrix-interpolation-array" count="20">LINEAR LINEAR LINEAR LINEAR LINEAR LINEAR LINEAR LINEAR LINEAR LINEAR LINEAR LINEAR LINEAR LINEAR LINEAR LINEAR LINEAR LINEAR LINEAR LINEAR</Name_array>
          <technique_common>
            <accessor source="#Armature_001_close_Bone_001_pose_matrix-interpolation-array" count="20" stride="1">
              <param name="INTERPOLATION" type="name"/>
            </accessor>
          </technique_common>
        </source>
        <sampler id="Armature_001_close_Bone_001_pose_matrix-sampler">
          <input semantic="INPUT" source="#Armature_001_close_Bone_001_pose_matrix-input"/>
          <input semantic="OUTPUT" source="#Armature_001_close_Bone_001_pose_matrix-output"/>
          <input semantic="INTERPOLATION" source="#Armature_001_close_Bone_001_pose_matrix-interpolation"/>
        </sampler>
        <channel source="#Armature_001_close_Bone_001_pose_matrix-sampler" target="Armature_001_Bone_001/transform"/>
      </animation>
    </animation>
  </library_animations>
  <library_visual_scenes>
    <visual_scene id="Scene" name="Scene">
      <node id="Armature_001" name="Armature.001" type="NODE">
        <matrix sid="transform">1 0 0 0 0 1 0 0 0 0 1 0 0 0 0 1</matrix>
        <node id="Armature_001_Bone" name="Bone" sid="Bone" type="JOINT">
          <matrix sid="transform">1 0 0 -2.248445 0 0 -1 0.09022476 0 1 0 4.157394 0 0 0 1</matrix>
          <extra>
            <technique profile="blender">
              <collections type="string">Bones</collections>
              <tip_x sid="tip_x" type="float">0</tip_x>
              <tip_y sid="tip_y" type="float">0</tip_y>
              <tip_z sid="tip_z" type="float">1</tip_z>
            </technique>
          </extra>
        </node>
        <node id="Armature_001_Bone_001" name="Bone.001" sid="Bone_001" type="JOINT">
          <matrix sid="transform">1 0 0 2.251555 0 0 -1 0.09022476 0 1 0 4.157394 0 0 0 1</matrix>
          <extra>
            <technique profile="blender">
              <collections type="string">Bones</collections>
              <tip_x sid="tip_x" type="float">0</tip_x>
              <tip_y sid="tip_y" type="float">0</tip_y>
              <tip_z sid="tip_z" type="float">1</tip_z>
            </technique>
          </extra>
        </node>
        <node id="Door_001" name="Door.001" type="NODE">
          <matrix sid="transform">1 0 0 0 0 1 0 0 0 0 1 0 0 0 0 1</matrix>
          <instance_controller url="#Armature_001_Door_001-skin">
            <skeleton>#Armature_001_Bone</skeleton>
            <skeleton>#Armature_001_Bone_001</skeleton>
            <bind_material>
              <technique_common>
                <instance_material symbol="Madeira_Clara_003-material" target="#Madeira_Clara_003-material">
                  <bind_vertex_input semantic="map1" input_semantic="TEXCOORD" input_set="0"/>
                </instance_material>
                <instance_material symbol="Vidro_Azul_006-material" target="#Vidro_Azul_006-material">
                  <bind_vertex_input semantic="map1" input_semantic="TEXCOORD" input_set="0"/>
                </instance_material>
                <instance_material symbol="Vidro_Azul_007-material" target="#Vidro_Azul_007-material">
                  <bind_vertex_input semantic="map1" input_semantic="TEXCOORD" input_set="0"/>
                </instance_material>
              </technique_common>
            </bind_material>
          </instance_controller>
        </node>
        <node id="Door_002" name="Door.002" type="NODE">
          <matrix sid="transform">1 0 0 0 0 1 0 0 0 0 1 0 0 0 0 1</matrix>
          <instance_controller url="#Armature_001_Door_002-skin">
            <skeleton>#Armature_001_Bone</skeleton>
            <skeleton>#Armature_001_Bone_001</skeleton>
            <bind_material>
              <technique_common>
                <instance_material symbol="Madeira_Clara_003-material" target="#Madeira_Clara_003-material">
                  <bind_vertex_input semantic="map1" input_semantic="TEXCOORD" input_set="0"/>
                </instance_material>
                <instance_material symbol="Vidro_Azul_006-material" target="#Vidro_Azul_006-material">
                  <bind_vertex_input semantic="map1" input_semantic="TEXCOORD" input_set="0"/>
                </instance_material>
                <instance_material symbol="Vidro_Azul_007-material" target="#Vidro_Azul_007-material">
                  <bind_vertex_input semantic="map1" input_semantic="TEXCOORD" input_set="0"/>
                </instance_material>
              </technique_common>
            </bind_material>
          </instance_controller>
        </node>
        <extra>
          <technique profile="blender">
            <collections sid="collections" type="string">Bones</collections>
            <visible_collections sid="visible_collections" type="string">Bones</visible_collections>
            <active_collection sid="active_collection" type="string">Bones</active_collection>
          </technique>
        </extra>
      </node>
    </visual_scene>
  </library_visual_scenes>
  <scene>
    <instance_visual_scene url="#Scene"/>
  </scene>
</COLLADA>