# Blender 4.4.1
# www.blender.org
mtllib skybox_sphere.mtl
o sphere
v -9.722720 13.382182 -0.000001
v -15.731707 5.111539 -0.000000
v -15.731689 -5.111539 0.000000
v -9.722720 -13.382182 0.000001
v -4.861369 13.382181 -8.420128
v -7.865845 5.111538 -13.624048
v -7.865845 -5.111540 -13.624048
v -4.861369 -13.382183 -8.420126
v 4.861369 13.382181 -8.420128
v 7.865845 5.111538 -13.624048
v 7.865845 -5.111540 -13.624048
v 4.861369 -13.382183 -8.420126
v 0.000000 -16.541286 0.000001
v 9.722720 13.382182 -0.000001
v 15.731707 5.111539 -0.000000
v 15.731707 -5.111539 0.000000
v 9.722720 -13.382182 0.000001
v 4.861369 13.382183 8.420126
v 7.865845 5.111540 13.624048
v 7.865845 -5.111538 13.624048
v 4.861369 -13.382181 8.420128
v 0.000000 16.541286 -0.000001
v -4.861369 13.382183 8.420126
v -7.865861 5.111540 13.624048
v -7.865845 -5.111538 13.624048
v -4.861369 -13.382181 8.420128
vn -0.6466 -0.7628 -0.0000
vn -0.9590 -0.2834 -0.0000
vn -0.4795 -0.2834 -0.8305
vn -0.3233 -0.7628 -0.5600
vn -0.9590 0.2834 -0.0000
vn -0.4795 0.2834 -0.8305
vn -0.6466 0.7628 -0.0000
vn -0.3233 0.7628 -0.5600
vn 0.4795 -0.2834 -0.8305
vn 0.3233 -0.7628 -0.5600
vn 0.4795 0.2834 -0.8305
vn 0.3233 0.7628 -0.5600
vn 0.9590 -0.2834 -0.0000
vn 0.6466 -0.7628 -0.0000
vn 0.9590 0.2834 -0.0000
vn 0.6466 0.7628 -0.0000
vn 0.4795 -0.2834 0.8305
vn 0.3233 -0.7628 0.5600
vn 0.4795 0.2834 0.8305
vn 0.3233 0.7628 0.5600
vn -0.4795 -0.2834 0.8305
vn -0.3233 -0.7628 0.5600
vn -0.4795 0.2834 0.8305
vn -0.3233 0.7628 0.5600
vn -0.0000 -1.0000 -0.0000
vn -0.0000 1.0000 -0.0000
vt 0.915938 0.232985
vt 0.905874 0.432276
vt 0.742658 0.397403
vt 0.763210 0.199929
vt 0.898530 0.631760
vt 0.730035 0.595855
vt 0.884357 0.830762
vt 0.710194 0.793417
vt 0.572836 0.364727
vt 0.583578 0.165285
vt 0.567397 0.564445
vt 0.560058 0.764063
vt 0.398530 0.368240
vt 0.384357 0.169238
vt 0.405874 0.567723
vt 0.415938 0.767015
vt 0.230035 0.404145
vt 0.210194 0.206583
vt 0.242658 0.602597
vt 0.263210 0.800071
vt 0.067397 0.435555
vt 0.060058 0.235937
vt 0.072836 0.635273
vt 0.083578 0.834715
vt 1.000000 0.039111
vt 0.500002 0.960889
vt 0.000000 0.039111
vt 1.060058 0.235937
vt 1.067397 0.435555
vt 1.072836 0.635273
vt 1.083578 0.834715
s 1
usemtl Material
f 4/1/1 3/2/2 7/3/3 8/4/4
f 3/2/2 2/5/5 6/6/6 7/3/3
f 2/5/5 1/7/7 5/8/8 6/6/6
f 8/4/4 7/3/3 11/9/9 12/10/10
f 7/3/3 6/6/6 10/11/11 11/9/9
f 6/6/6 5/8/8 9/12/12 10/11/11
f 12/10/10 11/9/9 16/13/13 17/14/14
f 11/9/9 10/11/11 15/15/15 16/13/13
f 10/11/11 9/12/12 14/16/16 15/15/15
f 17/14/14 16/13/13 20/17/17 21/18/18
f 16/13/13 15/15/15 19/19/19 20/17/17
f 15/15/15 14/16/16 18/20/20 19/19/19
f 21/18/18 20/17/17 25/21/21 26/22/22
f 20/17/17 19/19/19 24/23/23 25/21/21
f 19/19/19 18/20/20 23/24/24 24/23/23
f 13/25/25 4/1/1 8/4/4
f 1/7/7 22/26/26 5/8/8
f 13/25/25 8/4/4 12/10/10
f 5/8/8 22/26/26 9/12/12
f 13/27/25 12/10/10 17/14/14
f 9/12/12 22/26/26 14/16/16
f 13/27/25 17/14/14 21/18/18
f 14/16/16 22/26/26 18/20/20
f 13/27/25 21/18/18 26/22/22
f 18/20/20 22/26/26 23/24/24
f 13/25/25 26/28/22 4/1/1
f 26/28/22 25/29/21 3/2/2 4/1/1
f 25/29/21 24/30/23 2/5/5 3/2/2
f 24/30/23 23/31/24 1/7/7 2/5/5
f 23/31/24 22/26/26 1/7/7
